<?xml version="1.0" encoding="utf-8"?>
<!-- Generator: Adobe Illustrator 27.9.0, SVG Export Plug-In . SVG Version: 6.00 Build 0)  -->
<svg version="1.1" id="CRSS_Vector" xmlns="http://www.w3.org/2000/svg" xmlns:xlink="http://www.w3.org/1999/xlink" x="0px"
	 y="0px" viewBox="0 0 512 512" style="enable-background:new 0 0 512 512;" xml:space="preserve">
<g id="C">
	<g>
		<path d="M115.4,77c-19.6,1.3-38.6,9.1-52.3,23.5c-6.7,7.1-11.6,15.2-15.2,24.2c-3.7,9.2-6.9,19.1-7.6,29
			c-1.3,18.9,5.7,40.6,23.8,49c9.4,4.4,19.7,6.3,29.9,7.6c9.8,1.2,19.2-0.2,25-9.1c3.6-5.4,1.1-13.3-4.3-16.4
			c-5.9-3.4-12.8-1.1-16.4,4.3c-0.4,0.6,2.4-3.1,3.3-2.3c-0.4-0.3-3,0-3.8-0.1c-3.4-0.2-6.7-0.9-10.1-1.6c-5.7-1.2-12.3-2.4-17-6.1
			c-3.7-2.9-4.7-8.4-5.6-12.8c-1.2-6.2-1.4-12,0.2-18.1c3.1-12.3,7.5-23.9,16.9-32.8c8.9-8.5,20.8-13.4,33.1-14.3
			c6.5-0.4,12-5.2,12-12C127.4,82.8,121.9,76.5,115.4,77L115.4,77z"/>
	</g>
</g>
<g id="R">
	<g>
		<path d="M145.1,70.9c0,24.1,0.1,48.3,0.1,72.4c0,23.7,0.1,47.6-3.4,71.1c7.7,0,15.4,0,23.1,0c-6.9-28.5-10-62.4,1.7-90.2
			c2-4.8,4.4-7.6,9.4-8.7c5.2-1.1,12.6-0.8,18.2,0.1c4.4,0.7,7.9,2.4,9.7,6.5c2.5,5.8,2.6,12.3,2.6,18.9c0,4.3-0.2,8.6-0.8,12.8
			c-0.2,1.7-0.6,3.4-1,5c-0.2,0.9-0.6,2.1-0.6,2.1c1.2-0.2-0.9-0.6-0.6-0.6c-1.5-0.1-3.1,0.1-4.7-0.1c-0.2,0-2.3-0.4-0.7-0.1
			c-0.2,0-2.4-0.7-2.4-0.7c0.8-0.9,2.9,3.6,2.9,4.1c-0.5,2-1.1,4-1.6,6.1c0.1-0.3,0.3-0.6,0.4-0.8c-1.4,1.4-2.9,2.9-4.3,4.3
			c0.3-0.2,0.5-0.4,0.8-0.6c-2,0.5-4,1.1-6.1,1.6c-3.2-1.9-4.1-2.3-2.7-1c0.5,0.6,0.6,0.7,0.4,0.4c0.5,0.8,1.2,1.6,1.8,2.4
			c2,2.7,4.1,5.3,6.5,7.8c4.1,4.3,8.9,8.1,13.7,11.6c9,6.6,19,11.7,29,16.7c5.8,2.9,13,1.5,16.4-4.3c3.1-5.3,1.5-13.5-4.3-16.4
			c-10.8-5.5-22.1-10.9-31.5-18.7c-4-3.3-7.6-7.1-10.8-11.2c-5.2-6.8-12.1-13.5-21.6-10.8c-8.3,2.3-11.6,11.5-9.1,19.2
			c2.3,7.2,9.2,11.9,16.3,13.5c5.8,1.3,13.1,1.7,18.9,0.2c8.2-2,13.5-7.9,16.3-15.7c2.3-6.3,2.8-13.6,3.2-20.2
			c0.5-7.8,0-15.7-1.2-23.5c-2.2-13.8-9.7-25.3-23.1-30.2c-11.1-4.1-27.4-4.5-38.7-1.1c-14.7,4.5-21.8,17.1-26,31
			c-9.4,31.5-7.3,65.3,0.4,96.9c1.2,5.1,6.4,8.8,11.6,8.8c4.8,0,10.8-3.7,11.6-8.8c3.8-25.1,4.3-50.2,4.3-75.5
			c0-24.8,0-49.6-0.1-74.3C169.1,55.4,145.1,55.4,145.1,70.9L145.1,70.9z"/>
	</g>
</g>
<g id="S_x5F_1">
	<g>
		<path d="M321.4,73.1C306,77.7,290.9,84,276.8,91.8c-6.8,3.8-14.7,7.7-18.4,14.8c-3.9,7.7-2.8,18.1,0.1,26
			c3.2,8.8,8.1,15.6,17.7,17.6c8.6,1.8,17.3,2.2,26,1.4c1.5-0.1,2.9-0.3,4.4-0.3c0.1,0,2.2-0.3,1.1-0.1c1.3-0.2,1.4,1.3,0.5-0.2
			c-0.9-1.5-0.9-0.8-1-0.6c-0.1,1.5,0.8,3.3,0.8,4.8c0.2,5.8-4.5,9-9.1,11.8c-7.2,4.4-15.2,7.4-22.7,11.2c-8.4,4.2-16.6,9-24.5,14.1
			c-5.4,3.5-7.7,10.6-4.3,16.4c3.2,5.4,11,7.8,16.4,4.3c13.3-8.6,27.3-15,41.4-22.1c14.7-7.4,28.1-19.5,26.7-37.4
			c-0.7-8.3-3-16.7-10-21.9c-7-5.1-14.9-4.3-23-3.8c-3.7,0.3-7.5,0.3-11.2-0.1c-1.7-0.1-3.4-0.4-5.1-0.7c-0.2,0-2.2-0.6-2.4-0.5
			c1.1-0.9,3,4.6,1.9,0.9c-0.8-2.5-1.9-4.8-2.2-7.5c-0.1-0.6,0.4-3.8-0.2-2.5c-0.6,1.2-0.4,0.5,0.6,0.1c4-1.7,7.7-4.6,11.6-6.6
			c3.9-2.1,7.9-4,12-5.9c7.7-3.5,15.7-6.3,23.8-8.7C342.5,91.8,336.3,68.6,321.4,73.1L321.4,73.1z"/>
	</g>
</g>
<g id="S_x5F_2">
	<g>
		<path d="M425.2,74.9c-9.8,3-19.8,5.6-29.8,7.6c-8.8,1.8-18.2,2.4-26.7,5.4c-8.9,3.1-18,9.1-20.6,18.8
			c-3.6,13.4,8.3,20.5,18.9,24.3c9.1,3.2,19.2,4.7,28.8,4.3c1.1,0,1.1,0.3,1,0c-0.1-0.4-3.7-1.7-1.8-1.7c0,0,0.2,1.7,0.3,2
			c0.1,0.7-0.3,3.1,0.3,1.6c0-0.1-1.1,0.6-2,1c-8.7,3.8-17.5,7.1-25.6,12.2c-8.2,5.1-15.3,11.3-21.6,18.6
			c-5.9,6.8-11.3,14.6-18.8,19.8c-4.3,3-8.8,5.8-12.2,9.7c-3.4,3.8-5.9,8.2-9.6,11.7c-11.3,10.5,5.7,27.5,17,17
			c6-5.6,9.5-12.5,16.3-17.2c7.3-5.1,13.4-11.1,19.1-17.8c5.3-6.3,10.4-12.8,17.1-17.7c6.6-4.9,14.1-8.6,21.7-11.8
			c9.6-4,18.5-7.7,21.6-18.7c2.6-9.2,0.1-21.9-7.6-27.9c-7.7-6.1-17.2-3.9-26.2-5.2c-4.3-0.7-8.9-1.8-12.9-3.5
			c-0.5-0.2-1.6-0.7-1.7-0.8c-0.2-0.1-0.4-0.2-0.6-0.4c-2.9-1.9-2.5,0.8,1.4,8c-1.1,0.4,2.6-2.3,1.5-1.5c6.3-4.3,17.7-4.6,25.8-6.1
			c11.3-2.2,22.5-5,33.6-8.4C446.3,93.6,440,70.4,425.2,74.9L425.2,74.9z"/>
	</g>
</g>
<g id="left_x5F_eye">
	<g>
		<path d="M132.8,384.7c15.4,0,15.5-24,0-24C117.3,360.7,117.3,384.7,132.8,384.7L132.8,384.7z"/>
	</g>
</g>
<g id="right_x5F_eye">
	<g>
		<path d="M381.2,355.1c15.4,0,15.5-24,0-24C365.7,331.1,365.7,355.1,381.2,355.1L381.2,355.1z"/>
	</g>
</g>
<g id="w_x5F_smile">
	<g>
		<path d="M192.4,362.7c5.2,2.2,8.5,3.8,11.1,9c2.7,5.4,4.7,11.2,6.6,16.9c3.9,11.6,6.1,35.2,24.2,29.9
			c12.2-3.6,17.4-18.3,21.4-28.9c3.9-10.3,9.9-19.6,17.6-27.5c-6.3-0.8-12.6-1.6-18.8-2.4c2.7,4.9,2.5,10.6,2.4,16
			c-0.1,7.6-0.2,15,1.2,22.6c1.3,7.4,4.1,15.3,12,17.7c8.3,2.6,16.6-1.9,20.4-9.4c2.8-5.5,4.8-11.5,7.4-17.1c2.9-6.1,6-12,9.3-17.8
			c6.4-11.3,13.7-22.1,21.8-32.2c4.1-5,4.9-12,0-17c-4.2-4.2-12.9-5.1-17,0c-9.3,11.5-17.8,23.5-25.2,36.3
			c-3.5,6.1-6.8,12.3-9.8,18.6c-1.5,3.2-2.9,6.4-4.3,9.6c-0.9,2-1.7,4.1-2.6,6.1c-2.4,5.8,0.1-2.1,6.1-0.2c1.8,1,3.5,2.1,5.3,3.1
			c0.2,0.5,0.5,1,0.8,1.5c-0.4-1.2-0.7-2.5-1-3.7c-0.5-2.1-0.7-4.1-0.8-6.2c-0.2-4.2,0.1-8.5,0.1-12.7c0.1-9.5-1.1-18.8-5.7-27.2
			c-3.7-6.7-13.6-7.9-18.8-2.4c-8.1,8.4-15.1,18.1-19.9,28.8c-2.1,4.7-4,10.2-5.8,14.6c-0.6,1.4-1.8,3.9-2.9,5.5
			c-0.4,0.7-0.5,0.3-1.1,1.4c-0.6,1.1-1.8,1,0.5,0.3c2.1,0,4.3,0,6.4,0c0.3,0.1,0.6,0.2,0.8,0.4c1.4,1.4,2.9,2.9,4.3,4.3
			c-0.7-1.1-1.1-3.4-1.7-5.9c-0.8-2.9-1.6-5.8-2.5-8.7c-1.8-5.8-3.9-11.4-6.2-17c-2.3-5.6-4.6-11-8.4-15.8
			c-4.1-5.1-9.4-8.3-15.3-10.8c-5.9-2.6-12.9-1.8-16.4,4.3C185.2,351.3,186.4,360.1,192.4,362.7L192.4,362.7z"/>
	</g>
</g>
</svg>
