<?xml version="1.0" encoding="UTF-8" standalone="no"?>
<!DOCTYPE svg PUBLIC "-//W3C//DTD SVG 1.1//EN" "http://www.w3.org/Graphics/SVG/1.1/DTD/svg11.dtd">
<svg width="100%" height="100%" viewBox="0 0 244 243" version="1.1" xmlns="http://www.w3.org/2000/svg" xmlns:xlink="http://www.w3.org/1999/xlink" xml:space="preserve" xmlns:serif="http://www.serif.com/" style="fill-rule:evenodd;clip-rule:evenodd;stroke-linejoin:round;stroke-miterlimit:2;">
    <g transform="matrix(1,0,0,1,-1277,-15)">
        <g id="translink_logo_black" transform="matrix(0.981282,0,0,0.981282,-32.1347,-719.454)">
            <path d="M1458.64,748.722C1526.86,748.722 1582.25,804.11 1582.25,872.333C1582.25,940.556 1526.86,995.944 1458.64,995.944C1390.42,995.944 1335.03,940.556 1335.03,872.333C1335.03,804.11 1390.42,748.722 1458.64,748.722ZM1469.01,944.97C1504.6,939.924 1532.01,909.304 1532.01,872.333C1532.01,831.841 1499.13,798.966 1458.64,798.966C1418.15,798.966 1385.27,831.841 1385.27,872.333C1385.27,887.14 1389.67,900.928 1397.23,912.462C1397.66,912.97 1398.11,913.461 1398.57,913.936C1406.57,922.237 1417.67,924.474 1425.49,919.168C1430.96,915.457 1433.86,908.408 1433.93,899.194L1433.8,873.916L1420.4,873.916C1418.8,873.916 1417.35,872.958 1416.73,871.482C1416.1,870.006 1416.41,868.298 1417.52,867.142L1455.76,827.425C1456.51,826.642 1457.55,826.199 1458.64,826.199C1459.73,826.199 1460.77,826.642 1461.52,827.425L1499.75,867.142C1500.87,868.298 1501.18,870.006 1500.55,871.482C1499.92,872.958 1498.48,873.916 1496.87,873.916L1483.22,873.916L1483.35,899.561C1483.21,918.36 1477.59,933.512 1469.01,944.97Z"/>
        </g>
    </g>
</svg>
