<?xml version="1.0" encoding="UTF-8" standalone="no"?>
<!DOCTYPE svg PUBLIC "-//W3C//DTD SVG 1.1//EN" "http://www.w3.org/Graphics/SVG/1.1/DTD/svg11.dtd">
<svg width="100%" height="100%" viewBox="0 0 251 41" version="1.1" xmlns="http://www.w3.org/2000/svg" xmlns:xlink="http://www.w3.org/1999/xlink" xml:space="preserve" xmlns:serif="http://www.serif.com/" style="fill-rule:evenodd;clip-rule:evenodd;stroke-linejoin:round;stroke-miterlimit:2;">
    <g transform="matrix(1,0,0,1,-25,-879)">
        <g id="translink_full_white" transform="matrix(1,0,0,1,1.75396,54.0692)">
            <g transform="matrix(0.21614,0,0,0.21614,-144.727,766.456)">
                <g transform="matrix(180.723,0,0,180.723,1718.62,423.531)">
                </g>
                <text x="779.041px" y="423.531px" style="font-family:'ClashDisplay-Bold', 'Clash Display';font-weight:700;font-size:180.723px;fill:white;">TransLink</text>
            </g>
            <g transform="matrix(0.161816,0,0,0.161816,129.934,785.335)">
                <g transform="matrix(1,0,0,1,-769.265,-491.612)">
                    <path d="M1558.62,862.58L1558.75,888.225C1558.57,912.604 1549.18,930.85 1536.07,942.86C1515.51,961.687 1484.67,965.839 1457.99,951.723C1433.1,938.559 1418.06,909.43 1418.7,856.958L1418.7,856.848C1418.86,849.158 1419.63,841.958 1420.93,835.219C1432.79,773.537 1480.74,749.304 1516.02,742.689C1531.52,739.785 1580.78,739.097 1621.53,779.98L1639.08,798.371L1604.08,833.256L1594.52,810.555C1569.56,785.517 1530.26,782.423 1520.77,784.202C1497.48,788.567 1461.28,810.228 1460.24,856.646C1460,878.056 1465.11,893.404 1473.97,902.599C1481.97,910.901 1493.08,913.138 1500.9,907.832C1506.37,904.12 1509.27,897.071 1509.34,887.857L1509.21,862.58L1495.81,862.58C1494.21,862.58 1492.76,861.622 1492.13,860.146C1491.5,858.67 1491.82,856.961 1492.93,855.806L1531.16,816.089C1531.92,815.306 1532.96,814.863 1534.05,814.863C1535.13,814.863 1536.17,815.306 1536.93,816.089L1575.16,855.806C1576.27,856.961 1576.59,858.67 1575.96,860.146C1575.33,861.622 1573.88,862.58 1572.28,862.58L1558.62,862.58Z" style="fill:white;"/>
                </g>
                <g transform="matrix(1,0,0,1,-693.859,-502.948)">
                    <path d="M1458.64,749.222C1526.59,749.222 1581.75,804.386 1581.75,872.333C1581.75,940.28 1526.59,995.444 1458.64,995.444C1390.69,995.444 1335.53,940.28 1335.53,872.333C1335.53,804.386 1390.69,749.222 1458.64,749.222ZM1458.64,798.466C1499.41,798.466 1532.51,831.565 1532.51,872.333C1532.51,913.101 1499.41,946.199 1458.64,946.199C1417.87,946.199 1384.77,913.101 1384.77,872.333C1384.77,831.565 1417.87,798.466 1458.64,798.466Z" style="fill:white;"/>
                </g>
            </g>
        </g>
    </g>
</svg>
