<?xml version="1.0" encoding="UTF-8"?>
<svg id="Vector" xmlns="http://www.w3.org/2000/svg" viewBox="0 0 478.89 443.32">
  <defs>
    <style>
      .cls-1 {
        fill: #1d1d1b;
      }

      .cls-2 {
        fill: #7e7e7d;
      }

      .cls-3 {
        fill: #fff;
      }

      .cls-4 {
        fill: #75c1ed;
      }
    </style>
  </defs>
  <g id="Fill">
    <g id="Dark">
      <path class="cls-2" d="M145.17,78.74l9.92,4.78,15.72-.54,2.87-14.64,10.14-6.2,8.34-.68,9.22,7.57,11.62-1.15,24.6-5.18v5.68l-17.4,2.04-2.91,8.32s2.65,12.5,1.77,12.75,4.93,7.83,4.93,7.83l-4.29,4.08-27.36,2.46-9.32,6.6-5.5,15.87-16.66,1.55,3.13-13.5-3.56-6.01-26.25.7-8.59-1.59,5.94-13.82,13.64-16.93Z"/>
    </g>
    <polygon id="White" class="cls-3" points="148.17 10.66 141.25 23.35 123.6 28.4 113.95 44.66 89.78 68.49 79.02 92.3 73.16 122.06 66.47 147.65 72.65 166.76 75.06 199.65 83.08 225.43 100.81 262.96 120.55 289.37 180.56 325.83 232.41 337.7 286.21 334.41 343.03 316.47 382.13 283.27 405.25 248.27 421.68 211.45 431.97 184.84 430.83 139.69 422.87 91.86 395.94 45.94 386.87 45.94 375.89 42.01 371.77 30.9 372.47 22.67 360.77 18.82 346.05 3.76 339.93 4.34 333.74 20.51 317.66 13.46 292.41 21.46 267.43 25.49 252.91 12.17 241.09 13.69 234.34 30.55 215.78 40.59 216.17 52.93 222.21 59.4 236.5 54.04 243.51 58.03 241.36 65.42 222.21 70.42 220.13 84.64 225.32 97.21 228.47 101.24 192.24 105.66 182.48 119.39 175.99 131.09 163.48 131.09 158.56 124.92 160.43 113.35 130.86 111.95 125.7 108.57 133.24 89.34 147.74 78.74 151.54 69.03 139.65 67.64 140.37 60.83 150.95 40.08 152.63 26.24 163.96 12.95 148.17 10.66"/>
  </g>
  <g id="Outer_Globe" data-name="Outer Globe">
    <path d="M391.77,46.36c6.52,10.28,13.63,20.38,19.49,31.05s9.57,22.84,11.93,34.35c2.41,11.72,2.67,23.87,3.51,35.78.82,11.63,3.66,25.12-.55,36.31-1.7,4.52,5.55,6.48,7.23,1.99,4.3-11.43,1.78-24.56.95-36.41-.89-12.59-1.24-25.37-3.55-37.8-2.19-11.78-6.23-24.09-11.44-34.89-5.76-11.95-14.01-22.99-21.11-34.17-2.58-4.06-9.07-.31-6.48,3.79h0Z"/>
    <path d="M427.22,184.68c-2.07,12.71-9.05,22.43-14.07,33.97-5.18,11.89-9.14,24.35-14.8,36.03-5.27,10.87-13.14,19.42-21.91,27.59-9.28,8.64-18.6,17.37-29.26,24.32-4.03,2.63-.27,9.12,3.79,6.48,10.72-6.99,20.15-15.66,29.53-24.33s17.78-17.39,23.51-28.61c6.33-12.38,10.37-25.83,15.99-38.53,5.24-11.84,12.34-21.84,14.46-34.92.77-4.72-6.46-6.75-7.23-1.99h0Z"/>
    <path d="M349.51,307.13c-25.46,14.29-53.75,23.47-82.83,26.42-14.75,1.5-29.81,1.85-44.36-1.32-7.36-1.6-14.67-3.52-21.99-5.32-3.78-.93-7.55-1.85-11.33-2.78-3.2-.78-8.87-1.28-10.97-4.17-2.81-3.87-9.32-.13-6.48,3.79,4.3,5.91,11.61,6.67,18.29,8.31,8.13,1.99,16.26,4.01,24.4,5.98,16.23,3.93,32.28,4.75,48.91,3.34,31.67-2.68,62.44-12.23,90.14-27.77,4.21-2.36.43-8.84-3.79-6.48h0Z"/>
    <path d="M174.83,316.88c-12.32-3.7-23.31-10.25-33.99-17.27-5.4-3.55-11.01-7-15.94-11.19s-8.51-9.28-11.98-14.63c-14.32-22.02-26.73-44.35-34.25-69.65-1.37-4.62-8.61-2.65-7.23,1.99,8.02,26.96,21.35,51.13,36.95,74.4,7.36,10.97,17.05,17.88,27.93,25.06,11.46,7.57,23.3,14.55,36.53,18.52,4.63,1.39,6.61-5.85,1.99-7.23h0Z"/>
    <path d="M79.72,202.01c-2.89-8.79-3.5-17.8-3.42-27,.03-3.67.56-7.57-.22-11.18-.71-3.33-2.63-5.61-4.41-8.41-4.92-7.75.69-13.73,3.01-21.28,1.09-3.55,1.72-7.23,2.12-10.91.48-4.41-.3-9.55,2.19-13.4,2.63-4.07-3.86-7.83-6.48-3.79-4.51,6.98-2.5,16.66-4.6,24.49s-7.63,14.02-5.53,22.47c.95,3.82,3.42,6.33,5.23,9.67,2.26,4.17,1.18,9.54,1.18,14.13,0,9.22.8,18.41,3.7,27.21,1.5,4.56,8.75,2.61,7.23-1.99h0Z"/>
    <path d="M77.47,111.37c1.53-3.79,2.82-7.63,3.75-11.61.86-3.7.98-6.7,3.7-9.55,4.91-5.14,2.89-11.71,7.04-17.1s8.15-12.23,13.24-16.88,12.32-5.01,13.76-12.6c.89-4.72-6.33-6.74-7.23-1.99-.78,4.13-6.17,5.08-9.19,7.17-2.44,1.69-4.35,3.84-6.15,6.18-2.5,3.25-4.85,6.6-7.37,9.84-1.89,2.42-4.2,4.79-5.62,7.54-1.29,2.51-1.5,5.12-1.78,7.88-.41,3.88-3.23,5.04-5.01,8.17-1.46,2.58-1.77,5.59-2.4,8.43-.96,4.3-2.31,8.44-3.96,12.53-1.8,4.48,5.45,6.42,7.23,1.99h0Z"/>
    <path d="M119.69,42.69c.84-3.2,1.61-6.8,3.83-9.37,2.39-2.75,5.28-2.32,8.54-2.54,4.36-.29,8.24-2.03,11.09-5.4,1.29-1.52,2.33-3.35,2.9-5.26.51-1.7-.02-4.42.9-5.81,1.29-1.96,5.75.66,7.7,1.25,3.04.92,6.14,1.2,9.3,1.13l-2.65-6.4c-4.87,6.19-12.71,13.19-13.86,21.34-.31,2.21.03,4.39-.12,6.6-.21,3.07-1.46,5.44-2.96,8.04-1.99,3.42-4.14,6.75-5.99,10.25-2.57,4.85-5.73,14.16,2.35,15.44,1.98.31,4.97-1.16,6.69-.56-.03-.82-.27-.62-.7.6-.47.68-.89,1.39-1.27,2.13-1.24,2.59-1.26,5.29.04,7.86,3.24,6.43,12.25,6.78,18.49,6.27s12.31-2.82,13.34-9.46c.69-4.45-2.02-8.94,2.31-12.26,3.07-2.35,10.42-3.13,13.71-.8,2.72,1.93,1.62,5.8,4.38,7.99,2.41,1.91,5.38,1.5,8.08.47,4.46-1.71,2.53-8.96-1.99-7.23-1.83.7-1.33-1.15-1.95-2.64-.7-1.66-1.84-3.03-3.23-4.15-3.22-2.61-7.67-3.2-11.7-3.1-8.22.19-17.14,4.72-17.42,13.92-.07,2.31,1.4,6.21-.33,8.17-1.39,1.57-5.06,1.64-6.84,1.7-2.47.09-5.57.25-7.87-.7-3.65-1.51-1.54-3.44-.38-5.94,1.34-2.89,1.23-6.16-1.3-8.38-1.21-1.06-2.63-1.57-4.2-1.8-1.96-.29-5.41,1.2-7.02.36l1.72,2.24c-1.48-3.9,3.86-10.42,5.79-13.64,2.11-3.52,4.44-7,5.33-11.06,1.05-4.74-.5-9.31,2.3-13.63s6.63-8.53,9.93-12.71c1.88-2.38.9-6.48-2.65-6.4-4.23.1-7.23-1.02-11.16-2.26-2.47-.78-5.01-1.28-7.57-.55-2.06.59-4.07,2.03-5.08,3.96-1.43,2.74-.41,5.85-1.71,8.58-3.13,6.58-11.19,3.08-16.53,6.15-5.74,3.3-7.87,9.57-9.45,15.62-1.22,4.67,6.01,6.67,7.23,1.99h0Z"/>
    <path d="M208.71,73.66c4.27-1.92,9.73-2.31,14.29-3.31,5.2-1.14,10.4-2.27,15.61-3.41,4.71-1.03,2.72-8.26-1.99-7.23-5.85,1.28-11.7,2.56-17.56,3.83-4.71,1.03-9.71,1.65-14.13,3.64s-.58,8.44,3.79,6.48h0Z"/>
    <path d="M143.52,76.31c-8.49,5.47-15.12,13.21-18.9,22.62-1.4,3.49-3.74,8.82-2.48,12.63,1.45,4.39,6.43,4.3,10.2,4.37,6.56.12,13.13.09,19.69-.08,1.33-.03,3.71-.59,4.92-.15,1.76.63,1.07-.07,1.02,1.73-.08,2.64-1.76,5.67-2.08,8.45-1.31,11.32,16.12,9.95,23.29,7.65,9.91-3.17,3.72-18.31,12.04-23.11,4.84-2.8,12.62-2.34,18.07-2.94,3.22-.35,6.45-.71,9.67-1.06,2.61-.29,6.43-.02,8.82-1.43,3.21-1.89,2.96-5.85,1.38-8.73-3.05-5.56-6.36-10.46-5.53-17.24s7.16-4.67,12-5.19c4.3-.46,8.38-2.19,10.17-6.4,1.98-4.67-.16-11.26-3.39-14.95-3.89-4.45-8.76-1.3-13.32.52-2.98,1.19-5.42,3.42-7.95.77s-3-7.03-1.01-10.24c3.2-5.18,11.51-5.94,16.64-8.37,4.36-2.07.56-8.54-3.79-6.48-5.4,2.56-11.66,3.28-16.25,7.39-4.22,3.79-6.3,9.8-5.01,15.38,1.05,4.53,4.44,9.47,9.04,10.98,5.9,1.94,12.65-3.92,18.28-5.08l-2.89-.38c.97.56,1.65,2.23,2.05,3.18,1.12,2.6,1.01,4.71-1.54,5.95-2.19,1.06-5.6.26-7.98.42-4.83.32-9.16,2.03-11.29,6.65s-1.56,10.24-.45,14.87c.7,2.91,1.85,5.8,3.34,8.38.44.76,1.37,2.9,2.08,3.16.47.92.62.56.44-1.09-.97.11-1.93.21-2.9.32-7.09.78-14.18,1.54-21.27,2.33-5.41.6-10.88,1.31-14.77,5.51-3.23,3.48-4.36,8.31-5.23,12.83-.69,3.57-.54,6.36-4.47,7.37-3.58.92-9.44,1.13-12.62-.97l1.72,2.24c-1.9-5.9,7.01-12.84.71-18-2.01-1.65-4.55-1.87-7.05-1.91-4.58-.08-9.2.27-13.78.3-1.86.01-13.08,1-13.79-.12s2.78-8.16,3.33-9.29c3.31-6.71,8.31-12.24,14.59-16.29,4.04-2.61.29-9.1-3.79-6.48h0Z"/>
    <path d="M239.6,30.73c.11-3.66.49-11.7,3.92-14.18,2.01-1.46,5.83-.68,7.99.15,2.62,1.01,3.01,2.91,4.32,5.1,3.73,6.27,9.85,7.91,16.84,7.55,8.12-.42,16.57-1.76,24.23-4.5,3.51-1.25,6.89-2.81,10.1-4.72,4.72-2.81,7.3-4.31,12.6-1.77s12.85,9.7,18.61,3.65c2.05-2.15,2.66-5.26,2.81-8.12.06-1.18-.34-2.78.03-3.92,1.13-3.52,3.5-1.7,5.64.22,4.89,4.39,7.85,12.32,15.02,13.42,2.18.33,5.14-.96,6.62,1.37,1.16,1.83-.32,4.99-.49,6.94-.29,3.29.46,6.2,2.95,8.45,3.57,3.24,8.89-2.05,5.3-5.3-2.19-1.99.43-7.25.03-10.02s-1.86-5.19-4.05-6.85c-2.48-1.88-4.73-1.85-7.65-2.03-4.31-.27-5.83-3.72-8.34-6.86-3.56-4.46-9.4-10.55-15.81-9.08s-6.51,7.89-6.75,13.07c-.1,2.08.16,3.95-2.65,2.91-1.53-.56-3.01-1.9-4.43-2.71-2.93-1.66-6.16-3.44-9.49-4.12-7-1.43-12.35,3.94-18.23,6.68-7.37,3.44-15.71,4.86-23.75,5.59-3.21.29-7.38.89-10.28-.87s-3.56-5.95-5.9-8.35c-4.16-4.25-13.7-5.68-18.81-2.57-6.43,3.9-7.67,14.16-7.88,20.86-.15,4.83,7.35,4.82,7.5,0h0Z"/>
    <path d="M372.65,42.48c1.43,3.38,7.47,6.62,10.83,7.53,2.05.55,4.15.55,6.19-.06.92-.27,1.66-.75,2.48-1.19,1.41-.75.67-.65,2.57-.63,4.83.06,4.83-7.44,0-7.5-1.45-.02-3.13-.18-4.52.31-1.24.44-1.84,1.57-3.03,1.94-1.73.54-7.34-2.52-8.04-4.19-1.87-4.43-8.33-.61-6.48,3.79h0Z"/>
    <path d="M144.49,111.47c1.05-2.42,3.64-2,5.65-3.27,1.71-1.08,2.6-2.76,3.4-4.54,2.29-5.14,3.88-10.62,5.17-16.09,1.11-4.69-6.12-6.7-7.23-1.99s-2.03,11.11-4.72,14.95c-1.26,1.8-3.23,1.65-5.09,2.79-1.67,1.02-2.88,2.61-3.64,4.37-1.9,4.38,4.56,8.21,6.48,3.79h0Z"/>
  </g>
  <g id="Puzzle_Pieces" data-name="Puzzle Pieces">
    <g>
      <path d="M76.59,121.53c3.45,1.76,7.34,3.33,11.11,1.51,1.94-.94,2.6-2.59,2.46-4.65-.13-1.86-.13-3.72.04-5.58.31-3.56,1.25-7.27,2.84-10.48.65-1.31,1.46-1.95,2.98-1.79.65.07,1.32.28,1.94.52.4.16.79.37,1.17.56.26.13.51.27.77.41.39.29.48.3.28.04l-.34-1.26c.08.74-.25,1.7-.41,2.49-.18.88-.35,1.77-.53,2.65-.35,1.75-.79,3.51-.98,5.29-.38,3.46,1.95,5.95,5.24,6.56s6.78.46,10.07.17c3.69-.32,7.35-.98,10.91-2,3.09-.89,1.77-5.71-1.33-4.82-5.44,1.56-11.04,2.24-16.69,1.95-.84-.04-1.85-.04-2.64-.35s-.68-.6-.55-1.46c.41-2.88,1.17-5.73,1.71-8.59.3-1.61.33-3.03-1-4.2-.97-.86-2.36-1.42-3.55-1.92-2.52-1.08-5.31-1.48-7.88-.32s-3.63,3.68-4.61,6.15-1.68,5.1-2.07,7.75c-.1.69-.82,9.06-.29,9.04l.29-.6c.03-.06.01-.07-.04-.01.01,0-.81.25-.86.26-.51.07-1.05.04-1.55-.05-1.41-.25-2.69-.94-3.94-1.58-2.86-1.46-5.39,2.86-2.52,4.32h0Z"/>
      <path d="M117.75,46.58c.13.02.59.59.73.72.57.52,1.22.73,1.83,1.15.36.25.77,1.17.68,1.84-.02.13-.4.81-.54,1.11-.34.74-.62,1.5-.78,2.3-.29,1.46-.52,3.41.44,4.68.87,1.15,2.72,1.69,4.02,2.16,1.46.52,3.01.73,4.56.78,3.01.1,5.97.04,8.95.5,1.33.21,2.69-.34,3.08-1.75.33-1.19-.4-2.87-1.75-3.08-2.84-.44-5.67-.67-8.54-.67-1.18,0-2.4.06-3.56-.2-.66-.15-1.3-.36-1.93-.61-.2-.08-.39-.17-.59-.26-.14-.06-.95-.57-.51-.16l.64,1.1c-.08-.21-.1-.23-.04-.06-.01-.24,0-.48,0-.71.03-.4.03-.36.11-.75.16-.72.48-1.26.78-1.91.78-1.65.8-3.44.18-5.16s-1.65-2.9-3.24-3.75c-.61-.32-1.09-.98-1.73-1.4-.86-.57-1.8-.77-2.81-.89-1.34-.16-2.5,1.26-2.5,2.5,0,1.48,1.15,2.34,2.5,2.5h0Z"/>
      <path d="M142.86,27.54c.42.04.84.08,1.26.13.53.06-.53-.08.14.02.21.03.42.06.62.1.8.13,1.6.3,2.38.49,1.61.4,3.18.92,4.7,1.56.56.23,1.43.04,1.93-.25.52-.3,1.01-.9,1.15-1.49.15-.64.11-1.36-.25-1.93s-.86-.88-1.49-1.15c-3.33-1.39-6.85-2.17-10.44-2.47-1.31-.11-2.56,1.23-2.5,2.5.06,1.45,1.1,2.38,2.5,2.5h0Z"/>
      <path d="M75.06,185.15c2.69.29,5.94,1.12,7.01-2.21.69-2.15-.7-4.4.2-6.42.65-1.45,1.43-3.27,3.24-3.09,1.06.1,2.2.47,3.17.88.33.14,1.27.46,1.48.76.09.13-.09-.11.02.29.26,1.02-.13,2.49-.3,3.51-.22,1.38-.46,2.75-.59,4.14-.22,2.42-.16,5.29.69,7.59.96,2.59,3.75,3.65,5.99,4.92s4.53,2.82,6.99,3.74c2.6.97,5.72.95,8.46,1.02,3.04.08,6.08-.06,9.11-.39,1.34-.14,2.5-1.05,2.5-2.5,0-1.24-1.15-2.64-2.5-2.5-2.55.27-5.11.42-7.67.41-2.33,0-4.79,0-7.08-.44s-4.42-2.02-6.46-3.17c-1.05-.6-2.1-1.2-3.16-1.8s-1.46-.62-1.69-1.76c-.49-2.4-.29-4.86.1-7.25s.97-4.94.38-7.28-3.26-3.53-5.39-4.3-4.66-1.31-6.82-.53c-2.47.89-3.96,3.3-4.99,5.59-.56,1.24-.91,2.51-.8,3.89.06.71.21,1.4.31,2.1.02.18.06.36.06.55,0,.44-.18.51.1.26l1.1-.64c-.37.1-1.14-.13-1.53-.18l-1.95-.21c-1.34-.15-2.5,1.25-2.5,2.5,0,1.47,1.15,2.35,2.5,2.5h0Z"/>
      <path d="M120.64,115.72c-1.23,3.33-1.4,6.9-1.45,10.42s-.17,6.79-.84,10.18c-.32,1.63-.71,3.25-1.11,4.86-.11.44-.3.93-.34,1.38-.05.59-.14.3.28.08-.66.33-1.6.43-2.3.6-3.19.74-6.38,1.5-8.93,3.69-2.12,1.83-3.42,4.48-4.11,7.16-.36,1.41-.56,2.86-.72,4.3-.17,1.64-.5,3.61.27,5.13,1.44,2.81,5.47,3.74,8.29,4.29,1.5.29,3.11.43,4.56.93,1.22.42,1.38,1.95,1.69,3.07,2.07,7.47,1.35,15.37.7,22.99-.11,1.35,1.23,2.5,2.5,2.5,1.45,0,2.39-1.15,2.5-2.5.59-6.92,1.08-13.88-.1-20.77-.51-2.97-1.14-7.07-3.7-9s-6.34-1.74-9.32-2.61c-.6-.18-1.2-.37-1.76-.66-.31-.16-.79-.35-1.04-.61.17.18.03.47.2-.2.3-1.16.15-2.53.35-3.74.41-2.45,1.17-5.14,3.21-6.76,2.2-1.75,5.29-2.02,7.92-2.69,1.61-.41,3.06-.99,3.85-2.56s.99-3.38,1.37-5.02c.9-3.89,1.47-7.79,1.54-11.78s-.06-7.69,1.3-11.37c.47-1.27-.52-2.74-1.75-3.08-1.4-.38-2.61.47-3.08,1.75h0Z"/>
      <path d="M119.63,198.14l1.04,11.9c.33,3.76.56,7.56,1.17,11.29.49,3.01,1.53,6.08,3.72,8.28,2.49,2.5,6.19,3.6,9.64,3.7,1.61.05,3.27-.15,4.82-.56,1.81-.48,3.34-1.46,5.06-2.15.98-.4,1.23-.14,1.62.67.53,1.1.65,2.47.75,3.69.29,3.55.19,7.34-.78,10.79-.29,1.04-.81,2.48-1.96,2.87-1.22.42-2.71-.91-3.76-1.38-3.69-1.64-8.04-.18-8.21,4.31-.07,1.9.32,3.86.41,5.77.09,2.22.07,4.44-.05,6.65-.18,3.22,4.82,3.21,5,0,.21-3.79,0-7.51-.31-11.29-.04-.43-.02-.89-.01-1.3,0,.54-.69-.09-.04.12h.33s0,0,0,.01c.65.07,1.23.46,1.78.75.91.49,1.86.99,2.87,1.24,3.56.87,6.76-1.49,8.14-4.66,1.46-3.36,1.74-7.44,1.72-11.06-.02-3.11-.12-6.87-1.87-9.57-.78-1.2-1.91-2.19-3.31-2.59-1.9-.54-3.72.09-5.42.93-2.89,1.44-5.8,2.23-9.03,1.46-2.97-.71-4.86-2.44-5.73-5.38-1.04-3.56-1.12-7.43-1.44-11.11-.39-4.46-.78-8.92-1.17-13.39-.12-1.35-1.06-2.5-2.5-2.5-1.26,0-2.62,1.15-2.5,2.5h0Z"/>
      <path d="M103.23,257.73c.38-.92.84-1.82,1.31-2.7s.95-1.99,1.64-2.68c.89-.9,2.88-.15,3.83.37,3.25,1.78,4.74,5.3,5.91,8.64.71,2,1.66,3.56,3.49,4.72s3.79,1.58,5.82,1.84c4.03.51,8.36.73,12.14-.97,1.23-.56,1.53-2.34.9-3.42-.74-1.27-2.19-1.45-3.42-.9-1.82.82-3.98.66-5.92.57s-3.95-.13-5.78-.83c-.66-.25-1.41-.6-1.86-1.17s-.58-1.31-.81-1.95c-.72-2.01-1.55-4.03-2.72-5.82-2.29-3.5-5.89-6.27-10.21-6.43-2.65-.09-4.46,1.03-5.9,3.17-1.32,1.95-2.32,4.07-3.23,6.24-.52,1.25.56,2.75,1.75,3.08,1.44.4,2.55-.49,3.08-1.75h0Z"/>
      <path d="M134.25,266.5c.99,2.97,2.6,5.58,4.46,8.07s3.74,4.95,5.79,7.27c1.89,2.15,4.12,3.87,6.13,5.89.73.73,1.45,1.55,1.69,2.58.27,1.19-.07,2.44-.29,3.61-.57,2.94-.75,5.85,1.34,8.26,1.77,2.04,4.71,3.3,7.14,4.34,3.09,1.33,6.12,1.65,9.45,1.51,1.4-.06,2.81-.16,4.21-.02s2.68.67,3.95,1.3c1.44.72,2.97,1.32,4.35,2.14,1.2.72,1.83,1.68,2.45,2.92,1.61,3.23,2.88,6.62,3.93,10.07.94,3.07,5.76,1.76,4.82-1.33s-2.13-6.23-3.48-9.23c-1.26-2.8-2.62-5.27-5.37-6.84-1.16-.66-2.4-1.16-3.59-1.75-1.44-.72-2.89-1.48-4.46-1.89-3.13-.8-6.32-.24-9.49-.32-2.92-.08-5.42-1.35-7.94-2.7-.79-.43-1.85-.89-2.38-1.66-.62-.9-.39-2.08-.2-3.09.56-2.99,1.07-5.78-.41-8.6-1.24-2.35-3.45-3.94-5.36-5.69-2.53-2.32-4.67-5.03-6.77-7.74s-4.1-5.29-5.15-8.44-5.84-1.74-4.82,1.33h0Z"/>
      <path d="M141.58,271.64c10.3-.88,20.62.18,30.76,2.06,2.4.45,4.82.89,7.2,1.48,2.07.51,4.01,1.22,5.52,2.78,1.36,1.4,2.1,3.13,2.62,4.99.7,2.49,2.02,4.17,4.53,4.98,4.79,1.55,10.2,1.82,15.19,1.98,2.56.08,5.13.07,7.69.06,2.15-.01,4.49-.04,6.2-1.54,3.06-2.68,1.16-6.22-.64-8.92-.2-.29-.39-.59-.57-.9-.06-.1-.41-.8-.24-.4-.06-.14-.1-.29-.14-.44-.16-.6.02,0,0,.01.42-.13-.65-.29-.02.02.19.1-.56.14.05-.05.78-.24,1.59-.91,2.31-1.29,1.13-.6,2.27-1.19,3.42-1.75,9.63-4.7,19.99-7.83,30.59-9.4,1.34-.2,2.07-1.89,1.75-3.08-.39-1.43-1.73-1.95-3.08-1.75-9.48,1.41-18.68,4.11-27.47,7.92-2.21.96-4.39,2-6.53,3.1-1.93,1-4.35,1.95-5.46,3.94-1.78,3.22.94,5.95,2.4,8.59.06.1.39.78.21.41.07.14.08.3.12.44-.15-.5.04-.11-.03,0,.27-.37-.22,0-.03-.02.04,0,.02-.17.07-.18.02,0-.45.15-.59.18-2.08.41-4.51.11-6.63.1-4.96-.04-9.96-.25-14.83-1.27-.8-.17-2.23-.26-2.89-.8-.59-.49-.65-1.72-.88-2.41-.69-2.08-1.74-3.99-3.18-5.64-3.29-3.76-8.27-4.59-12.92-5.51-11.33-2.24-22.93-3.69-34.48-2.7-1.35.11-2.5,1.07-2.5,2.5,0,1.26,1.15,2.62,2.5,2.5h0Z"/>
      <path d="M256.06,265.12c.71.36,1.12.98,1.58,1.63.74,1.04,1.49,1.94,2.51,2.71,2.03,1.53,4.36,2.76,6.58,3.99,4.57,2.52,9.36,4.49,14.6,4.99l-2.16-3.76c-1.37,2.72-2.76,5.56-4.97,7.7s-5.44,3.04-8.43,3.91c-3.49,1.01-6.98,2.02-10.55,2.72-3.25.64-6.77.91-9.14,3.53-2.52,2.79-2.16,6.57.3,9.26,2.24,2.44,5.72,3.57,8.9,4.07,3.47.55,6.99.52,10.49.46,3.7-.06,7.08-.64,10.59-1.78,1.62-.53,6.25-1.89,6.74.79.26,1.45-1.08,3.03-1.85,4.11-1.1,1.54-2.14,3.09-2.58,4.96-.34,1.41.44,2.58,1.75,3.08,2.41.92,4.36,2.78,6.71,3.85,1.36.62,2.78,1.04,4.28,1.05.53,0,1.07-.07,1.6-.09.14,0,.63-.07.55-.04.44-.19.05.3-.24-.26l.9-3.42c-3.79,2.54-6.08,6.52-6.4,11.07-.1,1.35,1.22,2.5,2.5,2.5,1.43,0,2.4-1.15,2.5-2.5.19-2.7,1.68-5.24,3.92-6.75,1.16-.78,1.56-2.16.9-3.42-.83-1.57-2.47-2.16-4.16-2.19-1.34-.03-2.49.24-3.78-.25s-2.38-1.3-3.5-2.02c-1.43-.92-2.86-1.74-4.46-2.34l1.75,3.08c.74-3.08,3.64-5.12,4.39-8.28s-.65-6.39-3.68-7.83-6.41-.81-9.58.24c-1.52.5-3.04.99-4.63,1.21-1.85.25-3.74.25-5.61.26-3.3.02-6.68.1-9.9-.74-1.48-.38-6.01-1.84-5.07-4.17.36-.89,1.47-1.38,2.3-1.64,1.72-.54,3.56-.7,5.32-1.06,3.56-.73,7.05-1.74,10.54-2.76,3.7-1.08,7.35-2.33,10.18-5.06,2.53-2.45,4.19-5.61,5.75-8.71.9-1.79-.23-3.58-2.16-3.76-4.61-.44-8.87-2.49-12.85-4.74-1.89-1.07-4.22-2.09-5.79-3.6-1.48-1.42-2.18-3.32-4.11-4.3-2.86-1.45-5.4,2.86-2.52,4.32h0Z"/>
      <path d="M192.32,328.68c6.89.77,13.81.58,20.67-.48,3.38-.52,6.73-1.27,10.01-2.25,2.56-.76,5.72-2.21,8.4-1.12,1.08.44,1.73,1.41,2.46,2.27.91,1.07,2.01,2.05,3.4,2.43,1.57.44,3.31.04,4.86-.34,1.38-.34,2.79-.82,4-1.57,1.29-.8,2.36-1.86,3.1-3.19.65-1.15.78-1.64,2.15-1.84,1.23-.18,2.51-.14,3.75-.23,1.85-.13,3.69-.32,5.52-.56,7.58-.99,14.98-2.87,22.09-5.68,1.25-.5,2.13-1.67,1.75-3.08-.33-1.19-1.81-2.25-3.08-1.75-6.24,2.47-12.73,4.26-19.36,5.29-3.18.5-6.37.74-9.57.91s-5.8,1.04-7.39,4.05c-1.12,2.11-3.47,2.79-5.73,3.11-1.11.16-1.47-.55-2.17-1.38-.92-1.1-1.89-2.11-3.19-2.76-2.98-1.49-6.37-1.15-9.48-.27s-6.35,1.89-9.63,2.55c-7.42,1.47-15.04,1.71-22.55.87-1.34-.15-2.5,1.26-2.5,2.5,0,1.48,1.15,2.35,2.5,2.5h0Z"/>
      <path d="M282.05,316.99c3.32-.29,6.53-1.21,9.4-2.93,2.51-1.5,4.53-3.93,7.25-5.07s5.99-.73,8.92-.88c3.2-.17,6.4-.85,8.86-3.04,1.1-.98,1.95-2.23,2.47-3.61.27-.71.42-1.47.45-2.23s-.27-1.52-.21-2.24c.19-2.17,3.25-3.29,4.99-3.81,3.06-.92,6.24-1.47,9.36-2.16.81-.18,1.61-.36,2.42-.53.22-.05,1.33-.15,1.45-.32l.16-.04c-.41-.09-.69-.3-.84-.63-.11.23.24,1.22.3,1.48.2.79.55,1.58,1.11,2.19,2.51,2.73,6.32,1.46,8.69-.66,1.18-1.05,2.17-2.06,3.61-2.78.68-.34,1.4-.58,2.12-.8.4-.12.81-.22,1.22-.31.27-.06.54-.12.82-.17.47-.12.54-.11.21.01l-1.1-.64c-.44-.39-.13-.63-.25-.16-.09.35.02.85.05,1.2.08.79.2,1.59.41,2.36.4,1.47,1.06,2.92,1.94,4.16,1.82,2.55,4.45,4.54,7.6,5.02,1.33.2,2.69-.34,3.08-1.75.33-1.18-.4-2.87-1.75-3.08-2.67-.41-4.73-2.2-5.73-4.71-.61-1.52-.41-2.93-.7-4.49-.43-2.38-2.49-3.19-4.68-2.83-1.93.32-3.81.92-5.58,1.77s-3.12,2.09-4.52,3.39c-.38.35-.91.83-1.3.96-.33.11-.6-.11-.38.22-.15-.22-.19-1.14-.31-1.58-.25-.93-.71-1.76-1.47-2.35-1.88-1.48-4.37-.54-6.46-.08s-4.19.92-6.29,1.39c-3.41.75-6.97,1.46-9.78,3.66-1.48,1.16-2.78,2.76-3.22,4.62-.37,1.56.45,3.19-.29,4.65-1.58,3.06-5.9,2.95-8.82,2.98-2.22.02-4.49.06-6.66.62s-3.89,1.63-5.58,2.93-3.18,2.6-5.02,3.56-3.88,1.54-5.94,1.72c-1.35.12-2.5,1.06-2.5,2.5,0,1.26,1.15,2.62,2.5,2.5h0Z"/>
      <path d="M357.57,287.48c5.33-2.05,11.02-4.27,14.73-8.84,1.82-2.24,3-4.77,3.66-7.57s.89-5.65,1.6-8.42-3.06-4.33-4.57-1.93c-.79,1.25-2.81,1.28-4.14,1.33s-3.62.33-4.62-.75c-1.14-1.22-.47-3.75.08-5.07.62-1.48,1.68-2.85,2.95-3.83,3.76-2.88,8.94-1.61,13.27-2.81,2.29-.64,5.03-1.67,6.44-3.69s1.57-4.72,1.61-7.09c.05-2.95.02-5.9-.03-8.85s0-6.12-.97-9c-1.02-3.03-5.85-1.73-4.82,1.33.9,2.68.76,5.6.8,8.39s.11,5.87,0,8.8c-.04,1.05-.07,2.26-.51,3.24-.4.87-1.56,1.25-2.4,1.58-2.55.99-5.15.99-7.84,1.2-5.12.4-9.67,2.62-12.3,7.2-2.33,4.04-3.08,10.77,1.8,13.32,2.36,1.23,5.35,1.21,7.95.95,2.83-.29,5.47-1.2,7.05-3.71l-4.57-1.93c-1.19,4.61-.94,10-4.05,13.88s-7.97,5.73-12.45,7.45c-1.26.48-2.13,1.68-1.75,3.08.33,1.2,1.81,2.23,3.08,1.75h0Z"/>
      <path d="M385.35,219.79l-.25-.1,1.1.64-.17-.19.64,1.1c-.13-.33.08-.86.18-1.36.15-.79.32-1.58.52-2.36.36-1.4.81-2.74,1.54-4,1.4-2.43,3.52-4.39,5.76-6.04,2.61-1.92,5.42-3.58,8.01-5.52,1.36-1.02,2.69-2.08,3.97-3.22.56-.49,1.1-1,1.64-1.52.32-.31.64-.63.95-.95l.31-.32c.48-.39.4-.45-.25-.18l-1.26-.34c-.46-.74-.6-.84-.44-.31.06.29.12.58.19.86.1.43.22.86.35,1.28.33,1.05.75,2.08,1.21,3.07.83,1.79,1.91,3.92,3.75,4.81,1.94.95,4.22.21,5.64-1.3s2.02-3.89,2.51-5.9c.93-3.85,1.24-7.87,2.6-11.61,1-2.74,2.87-5.65,5.74-6.68,1.27-.45,2.12-1.7,1.75-3.08-.34-1.23-1.8-2.2-3.08-1.75-5.37,1.92-8.46,6.93-9.87,12.23-.8,3-1.16,6.09-1.85,9.11-.29,1.28-.54,2.84-1.25,3.97-.05.09-.37.58-.41.47-.05-.16.43.06.42.07.07-.16-.94-1.52-1.04-1.69-.68-1.24-1.19-2.54-1.55-3.91-.39-1.49-.55-3.05-2.03-3.9-1.57-.9-3.16-.21-4.36.92s-2.3,2.32-3.54,3.4c-4.61,4.03-10.29,6.7-14.66,11.01-2.4,2.37-4.2,5.18-5.21,8.41-.52,1.66-.89,3.41-1.16,5.13-.32,2.06.22,3.72,2.27,4.55,1.25.51,2.75-.55,3.08-1.75.39-1.43-.49-2.57-1.75-3.08h0Z"/>
      <path d="M386.83,209.68c-3.94-4.71-5.76-10.96-5.2-17.05.27-2.92,1.14-6.14,3.41-8.15s5.22-1.08,7.97-1.95c3.64-1.16,4.53-4.52,4.85-7.93.17-1.79.22-3.59.22-5.39,0-1.89.18-4-.37-5.84-1.05-3.5-4.61-4.11-7.79-4.1-1.79,0-3.41.31-5.06,1s-3.19,1.16-4.99,1.22-3.63.12-5.33-.22c-1.53-.31-2.52-1.2-3.39-2.47-2.24-3.26-3.93-6.86-5.11-10.63-.96-3.06-5.79-1.75-4.82,1.33,1.1,3.5,2.58,6.89,4.47,10.03,1.79,2.97,3.95,5.8,7.52,6.56,1.73.37,3.53.39,5.29.41,1.87.02,3.81-.07,5.62-.6,1.53-.45,2.93-1.39,4.54-1.59.69-.08,1.41-.05,2.11-.03.47.01,1.66-.08,2.03.29.57.56.27,2.45.27,3.17.02,1.96.01,3.93-.13,5.89-.07,1.04,0,3.12-.89,3.88-.79.68-2.36.46-3.3.51-3.44.21-6.39,1.62-8.55,4.35-2.28,2.88-3.21,6.47-3.57,10.07-.75,7.5,1.85,15.05,6.65,20.79.87,1.04,2.64.9,3.54,0,1.03-1.03.87-2.5,0-3.54h0Z"/>
      <path d="M364.97,149.66c1.37-2.82,2.74-5.73,4.7-8.2s4.73-4.33,7.42-6.11c3.11-2.06,6.22-4.11,9.33-6.17,1.5-.99,2.99-1.99,4.49-2.97,1.18-.77,2.5-1.72,3.95-1.86,2.59-.26,3.05,2.71,3.81,4.57,1.29,3.18,3.27,5.83,6.55,7.11,1.48.58,3.09.77,4.67.86s3.67.36,4.88-.85,1.13-3.42,1.35-5.02c.27-1.97.52-3.94.69-5.92s.27-4.15.21-6.23c-.05-1.75-.4-3.61-.03-5.33.34-1.62,1.48-3.17,2.41-4.51.74-1.08,1.66-2.2,2.94-2.62,3.04-1.02,1.73-5.85-1.33-4.82-2.73.91-4.59,2.89-6.14,5.24-1.66,2.51-2.95,5.02-3.01,8.09s.25,6.13.02,9.23c-.12,1.6-.29,3.19-.49,4.78-.08.65-.17,1.31-.27,1.96-.07.48-.06,1.76-.29,2.13l.9-.9-.29.13,1.26-.34c-1.9.14-4.14.13-5.93-.6s-2.74-2.36-3.41-4.01c-.78-1.92-1.32-3.89-2.67-5.51s-3.64-2.57-5.84-2.43c-2.4.15-4.5,1.26-6.48,2.55-2.13,1.39-4.24,2.8-6.36,4.2-4.19,2.77-8.58,5.36-12.5,8.51-4.13,3.31-6.6,7.85-8.87,12.53-.59,1.21-.33,2.7.9,3.42,1.1.64,2.83.32,3.42-.9h0Z"/>
      <path d="M364.08,147.9c-1.16-3.81-2.33-7.62-3.17-11.51-.77-3.55-1.09-7.07-1.21-10.69-.19-5.47-.68-17.74-9.08-15.64-3.2.8-5.47,3.26-7.96,5.23s-5.59,3.4-8.77,3.92c-1.27.21-2.86.29-3.94-.54-.92-.71-1.41-1.95-1.81-3-1.24-3.27-2.6-6.75-2.8-10.28-.16-2.77.41-5.83,2.47-7.84,1.86-1.83,4.63-2.43,6.74-3.92,2.9-2.05,4.23-5.16,3.56-8.69s-3.07-5.93-4.42-9.05c-.25-.57-.45-1.2-.54-1.82s-.09-.53.3-.87c1.28-1.1,3.14-1.86,4.63-2.66,3.14-1.69,6.37-3.23,9.68-4.56s6.82-2.51,10.32-3.48c.43-.12.87-.27,1.31-.35.28-.05.89.13.44-.14.26.15.44.47.58.82.54,1.31.47,2.81.92,4.16,1.38,4.2,5.96,5.33,9.97,5.28s7.72-1.78,9.52-5.3c.98-1.9,1.06-3.9.66-5.97-.3-1.52-1.23-3.28-.79-4.85.39-1.4,1.75-2.35,2.94-3.05,1.72-1.01,3.57-1.76,5.22-2.92,1.1-.78,1.62-2.19.9-3.42-.64-1.09-2.31-1.68-3.42-.9-2.85,2-6.4,2.96-8.69,5.73-1.15,1.4-1.92,3-2.03,4.83s.55,3.67.97,5.49c.62,2.71-1.15,4.65-3.76,5.2-1.57.33-3.24.13-4.78-.26-.59-.15-1.3-.27-1.7-.79-.35-.46-.42-1.27-.52-1.82-.6-3.21-1.77-7.1-5.77-7.19-1.7-.04-3.44.62-5.05,1.1-1.89.56-3.76,1.18-5.61,1.85-3.62,1.31-7.17,2.82-10.62,4.53-1.63.8-3.24,1.65-4.82,2.54-1.45.82-3.16,1.6-4.35,2.79-2.88,2.86-1.01,7.39.73,10.32,1.25,2.11,4.19,5.63,2.53,8.2-1.24,1.91-4.25,2.62-6.16,3.75-2.89,1.72-4.85,4.46-5.77,7.68s-.69,6.93.13,10.3c.44,1.8,1.05,3.55,1.67,5.3.59,1.63,1.14,3.35,2.08,4.82,4.29,6.72,13.75,3.81,19.19.19,1.61-1.07,3.05-2.37,4.53-3.61.61-.51,1.26-.98,1.96-1.37.62-.35,1.22-.43,1.86-.68.58-.22.25.05.15-.05.26.26.45.79.61,1.12.38.8.64,1.66.85,2.53.42,1.7.56,3.43.64,5.18.21,4.3.36,8.52,1.18,12.76.85,4.38,2.16,8.65,3.46,12.91.94,3.07,5.77,1.76,4.82-1.33h0Z"/>
      <path d="M328.56,70.8c-6.14.87-8.33-6.57-10.28-10.87-1.4-3.09-2.91-6.14-4.22-9.27-.25-.6-.8-1.7-.41-2.3.42-.66,1.91-.82,2.62-1.03,2.83-.85,5.52-2.42,7.48-4.66,1.12-1.28,1.77-2.76,1.33-4.49-.35-1.37-1.03-2.81-1.74-4.02-1.51-2.57-3.77-3.92-6.67-4.39-3.13-.51-6.31-.71-9.42,0-.9.21-1.77.52-2.61.89-.69.3-1.35.76-2.08.95-1.05.27-1.86-.89-2.49-1.58-2.3-2.54-4.1-5.48-5.48-8.62-.54-1.24-2.35-1.52-3.42-.9-1.27.75-1.44,2.18-.9,3.42,1.33,3.01,3.06,5.76,5.13,8.31s4.58,5.08,8.1,4.29c1.38-.31,2.54-1.15,3.86-1.6,1.49-.51,3.01-.66,4.58-.63,2.26.04,5.51-.01,6.9,2.08.34.51.61,1.08.86,1.64.11.25.22.51.32.77.1.28.09.97.27.49.22-.6-.35.18-.33.16-.27.3-.57.58-.87.85-.55.49-1.16.89-1.8,1.25-2.3,1.3-5.21,1.33-7.15,3.29-2.59,2.62-1.39,6.1-.08,8.99,1.51,3.33,3.03,6.67,4.55,10,1.41,3.1,2.69,6.52,5.25,8.88,2.77,2.55,6.38,3.44,10.06,2.92,1.34-.19,2.07-1.89,1.75-3.08-.4-1.44-1.73-1.94-3.08-1.75h0Z"/>
      <path d="M328.02,72.07c-.63.82-2.54.53-3.36.43-2.11-.27-4.03-.57-6.16-.24-3.7.59-7.1,2.54-10.69,3.55-3.8,1.07-7.71,1.69-11.62,2.2-.91.12-1.82.24-2.73.34-.59.07-1.82.37-2.35-.07-.68-.55-.42-2.28-.36-2.99.14-1.69.32-3.44-.25-5.08-.65-1.86-2.06-3.21-3.78-4.13-2.96-1.58-6.38-2.35-9.73-2.3-6.77.09-13.58,3.44-17.17,9.3-2.15,3.52-2.74,7.84-1.1,11.67.82,1.91,2.19,3.47,3.95,4.59.94.59,1.98,1.02,3,1.43.82.33,1.77.55,2.5,1.06l-.9-.9.18.26-.34-1.26c.33-.56.36-.69.09-.4-.14.14-.29.28-.45.41-.26.22-.49.4-.77.6-.61.42-1.26.79-1.92,1.12-1.33.67-2.76,1.14-4.19,1.57-3.43,1.02-6.92,1.83-10.43,2.53-7.14,1.43-14.38,2.24-21.66,2.49-3.21.11-3.22,5.11,0,5,11.24-.38,22.62-1.99,33.41-5.2,2.34-.7,4.71-1.56,6.79-2.86s5.35-3.74,3.76-6.52c-1.24-2.18-4.59-2.36-6.58-3.64-1.52-.99-2.34-2.69-2.45-4.48-.26-4.35,3.3-8.04,6.89-9.93s7.86-2.34,11.73-1.29c1.46.4,4.05,1.07,4.45,2.76.22.96.02,2.05-.07,3.02-.1,1.17-.09,2.32.14,3.48.55,2.71,2.61,4.56,5.35,4.83,2.56.25,5.37-.45,7.9-.8,2.98-.42,5.95-.93,8.87-1.68s5.66-1.92,8.49-2.95c1.26-.46,2.58-.89,3.93-.93,1.5-.05,2.96.33,4.45.47,2.95.29,5.62-.54,7.45-2.93.82-1.07.16-2.8-.9-3.42-1.29-.75-2.6-.18-3.42.9h0Z"/>
      <path d="M226.91,104.39c1.39,2.93,1.83,6.21,1.97,9.42s.25,6.35-.13,9.45c-.27,2.21-.94,4.6-2.91,5.88-2.17,1.41-5.07,1.28-7.55,1.43-2.99.18-6.05.55-8.66,2.14-2.35,1.43-4.24,3.6-5.47,6.05-2.7,5.32-3.31,12.6.13,17.75,2.95,4.41,8.27,7.25,13.61,7.01,3.19-.15,5.76-1.52,8.55-2.93,2.47-1.25,4.74-1.38,7.15.09,5.07,3.08,6.39,9.8,6.69,15.26.08,1.44.11,2.88.11,4.32,0,.75,0,1.5-.02,2.24,0,.58.09,1.33-.14,1.89-.22.52-1.07.68-1.79.76-1.55.16-3.15-.02-4.71-.01-8.28.03-16.49,1.65-24.5,3.61-3.67.9-7.37,1.77-10.98,2.88s-6.74,2.56-9.31,5.14c-.8.8-.93,2.05-.39,3.03,1.84,3.32,3.65,6.73,5.09,10.25.08.2.28.49.28.69,0-.36-.16-.02-.36.17-.45.42-.91.83-1.4,1.21-1.14.88-2.4,1.63-3.69,2.27-4.96,2.47-10.92,3.01-16.23,1.48-1.03-.3-2.71-.63-3.5-1.4-.13-.13-.25-.44-.24-.24-.03-.5.37-1.18.57-1.62.64-1.38,1.29-2.72,1.46-4.24.19-1.77-.36-3.51-1.41-4.93-2.06-2.8-5.34-3.78-8.6-4.46-3.84-.8-7.68-1.59-11.54-2.25-8.54-1.46-17.23-2.35-25.87-1.25-1.34.17-2.5,1.03-2.5,2.5,0,1.22,1.15,2.67,2.5,2.5,8.11-1.04,16.27-.34,24.3,1.03,4.01.68,8,1.5,11.98,2.33,1.95.41,6.66,1.26,6.16,4.2-.23,1.36-1.15,2.64-1.61,3.93-.56,1.55-.61,3.34.24,4.8,1.63,2.8,5.89,3.87,8.87,4.43,6.37,1.2,13.05.19,18.75-2.92,3.1-1.69,7.94-4.64,6.93-8.78-.51-2.08-1.75-4.17-2.68-6.09-1-2.07-2.07-4.12-3.19-6.13l-.39,3.03c2.16-2.17,4.99-3.25,7.87-4.09,3.37-.98,6.8-1.82,10.21-2.65,7.13-1.74,14.37-3.21,21.73-3.4,2.91-.08,6.2.5,8.99-.56,1.37-.52,2.54-1.39,3.27-2.68.89-1.58.82-3.47.83-5.22.06-6.43-.2-13.25-3.39-19.01s-9.49-9.88-15.96-7.36c-2.6,1.01-5.04,2.95-7.82,3.18-2.3.19-4.55-.41-6.53-1.62-4.78-2.93-5.59-8.65-3.98-13.7.73-2.3,2.09-4.6,4.15-5.95,2.25-1.48,4.96-1.56,7.56-1.7,3.29-.18,6.78-.44,9.53-2.46s4.19-5.33,4.66-8.75.44-7.32.25-10.93c-.21-4-.91-7.86-2.63-11.5-.58-1.22-2.33-1.54-3.42-.9-1.25.73-1.48,2.2-.9,3.42h0Z"/>
      <path d="M244.18,189.61c10.62-2.67,21.61-2.73,32.43-4.03,5.44-.66,10.96-1.51,16.16-3.3,2.54-.88,4.78-2.17,6.3-4.44,1.24-1.83,1.75-4.12,1.83-6.31.09-2.32-.36-4.65-1.04-6.85s-1.65-4.61-1.33-7.06c.59-4.53,4.33-7.87,8.27-9.66,2.26-1.02,4.74-1.59,7.17-2,2.04-.34,4.11-.66,5.6,1.05s1.72,4.19,1.85,6.37c.09,1.46.19,2.92,1.23,4.07.9.98,2.28,1.48,3.55,1.76,3.11.68,6.28.16,9.33-.57s6.01-1.58,8.97-2.53c5.99-1.91,11.84-4.24,17.53-6.91,1.22-.57,1.53-2.33.9-3.42-.73-1.25-2.19-1.47-3.42-.9-4.95,2.33-10.03,4.34-15.22,6.05-2.59.85-5.2,1.62-7.83,2.31s-5.17,1.43-7.83,1.28c-.52-.03-1.02-.11-1.52-.25.07.02-.86-.26-.85-.27.08-.18.15.43.25.32s-.11-1.47-.12-1.63c-.06-.83-.15-1.65-.27-2.47-.38-2.54-1.33-5-3.12-6.89-3.79-3.98-9.82-2.63-14.51-1.27-4.93,1.43-9.46,4.1-12.38,8.42-1.37,2.03-2.24,4.37-2.52,6.8-.32,2.71.38,5.29,1.19,7.85,1.04,3.26,2.32,8.12-.61,10.85-1.75,1.63-4.63,2.11-6.86,2.67-2.61.66-5.26,1.15-7.92,1.55-12.15,1.82-24.55,1.57-36.53,4.58-3.12.78-1.8,5.61,1.33,4.82h0Z"/>
      <path d="M240.69,188.65c-.02,2.75.04,5.54.78,8.21.69,2.49,1.86,4.84,2.91,7.19s2.17,4.84,3.25,7.26c.98,2.2,1.9,4.46,3.57,6.24,3.09,3.31,8.93,4.49,13.11,2.76,1.09-.45,2.01-1.11,2.75-2.03.58-.72.98-1.67,1.7-2.25,1.79-1.43,4.49-2.21,6.66-2.82,2.32-.65,4.68-1.03,7.08-1.11,1.6-.05,3.71-.32,4.71,1.17.94,1.41.95,3.4.94,5.02-.02,2.01-.24,4.02-.94,5.92-1.54,4.18-5.56,4.95-9.47,5.8-2.71.59-5.41,1.17-8.14,1.64-2.39.42-4.92.55-7.21,1.41-5.26,1.97-8.26,7.25-8.27,12.74,0,2.94.84,5.67,1.85,8.4.72,1.94,2.01,4.67,1.12,6.75-.53,1.24-.37,2.68.9,3.42,1.05.61,2.89.35,3.42-.9,1.04-2.43,1.11-4.82.45-7.39-.6-2.35-1.7-4.54-2.3-6.88-1.03-4.03-.24-9.13,3.84-11.17,2.11-1.06,4.77-1.09,7.07-1.48,2.65-.45,5.28-1,7.91-1.57,4.73-1.03,9.43-2.11,12.24-6.44,2.28-3.51,2.85-8.27,2.47-12.36-.19-2.1-.64-4.24-1.91-5.98-1.53-2.08-3.77-2.95-6.29-3.11-5.15-.32-10.47.84-15.19,2.85-2.38,1.02-4.44,2.12-5.91,4.32-.42.62-.71,1.18-1.43,1.45-.96.36-2.06.34-3.07.27-2.22-.16-4.15-1.15-5.31-3.07-1.42-2.32-2.38-4.98-3.49-7.46-1.19-2.66-2.51-5.3-3.54-8.03-1.1-2.89-1.26-5.74-1.24-8.81.03-3.22-4.97-3.22-5,0h0Z"/>
      <path d="M262.08,266.77c.82-1.01,1.33-2.05,1.75-3.27.17-.49.29-1,.49-1.48.05-.13.26-.56.34-.61.64-.37,2.28-.18,3.16-.21,1.76-.08,3.52-.14,5.28-.2,6.41-.22,12.82-.37,19.21-.85s12.8-1.22,19.03-2.7c2.67-.63,5.38-1.65,7.12-3.88,1.88-2.4,2.15-5.47,1.73-8.4s-1.66-5.53-1.62-8.39c.03-2.18.94-4.28,2.25-6,3.37-4.4,8.99-6.03,14.25-6.76,1.28-.18,2.56-.31,3.85-.4.85-.06,1.99-.25,2.57.5.65.82.78,2.18,1,3.16.37,1.69.68,3.39.91,5.1.38,2.8.09,7.06,3.96,7.26,1.4.07,2.89-.42,4.23-.75s2.73-.73,4.08-1.15c6.12-1.93,12.03-4.65,17.45-8.09,2.8-1.78,5.48-3.75,8.02-5.89s4.73-4.35,6.12-7.24c.58-1.22.34-2.7-.9-3.42-1.09-.64-2.83-.33-3.42.9-1.16,2.42-3,4.25-5.02,5.97-2.15,1.83-4.42,3.49-6.79,5.02-4.74,3.07-9.83,5.58-15.18,7.4-1.2.41-2.42.79-3.64,1.13-.68.19-1.36.37-2.05.55-.46.12-2.2.26-2.48.57.56-.64,1.05,1.94.88.12-.07-.7-.15-1.4-.23-2.1-.22-1.78-.49-3.55-.84-5.31-.53-2.72-1.07-5.81-3.47-7.55s-5.48-1.19-8.2-.87c-5.84.69-11.65,2.09-16.27,5.93-4.23,3.51-6.69,8.82-5.89,14.32.6,4.17,4.05,10.78-1.6,12.85-2.81,1.03-5.95,1.44-8.89,1.91-3.09.49-6.2.83-9.32,1.09-7.19.6-14.4.76-21.6,1.01-1.84.06-3.68.13-5.52.22-1.61.07-3.31.04-4.75.88-1.25.73-1.98,1.98-2.5,3.29-.35.89-.58,2.24-1.07,2.83-.85,1.05-1.02,2.51,0,3.54.88.88,2.68,1.05,3.54,0h0Z"/>
    </g>
  </g>
  <g id="Faces_:3" data-name="Faces :3">
    <g>
      <path d="M398.77,156.02c3.22,0,3.22-5,0-5s-3.22,5,0,5h0Z"/>
      <path d="M415.64,147.97c3.22,0,3.22-5,0-5s-3.22,5,0,5h0Z"/>
      <path d="M418.9,153.59c-6.15,3.77-12.3,7.54-18.45,11.32-1.15.71-1.59,2.24-.9,3.42s2.27,1.61,3.42.9c6.15-3.77,12.3-7.54,18.45-11.32,1.15-.71,1.59-2.24.9-3.42s-2.27-1.61-3.42-.9h0Z"/>
      <path d="M401.55,167.26c.01,2.46.23,5.06.95,7.42.76,2.5,2.45,4.34,5.11,4.76s5.55.09,7.42-2.01,1.66-4.63,1.37-7.19c-.33-2.84-.7-5.68-1.58-8.4-.4-1.24-1.75-2.18-3.08-1.75-1.24.4-2.18,1.74-1.75,3.08.39,1.21.69,2.44.92,3.69s.31,1.91.45,3.11.39,2.42.24,3.59c.06-.49-.07.19-.1.29.16-.47-.44.54-.01.05-.14.16-.29.31-.46.44.43-.34-.2.07-.3.13-.16.08-.13.07.11-.04-.15.05-.3.1-.46.14-.63.18.28.03-.38.07-.31.02-.62.01-.93,0-.13,0-.27-.02-.4-.04.22.03.18.02-.11-.03-.24-.06-.48-.1-.71-.19.22.1.2.08-.07-.06.23.19.23.2.03.01l-.14-.15c.18.25.18.25.02.02-.04-.07-.37-.73-.25-.44s-.13-.43-.16-.5c-.06-.2-.11-.41-.16-.61-.14-.61-.25-1.23-.35-1.85-.05-.31-.05-.37-.03-.17l-.03-.28c-.04-.37-.08-.74-.1-1.11-.05-.65-.07-1.3-.07-1.96,0-1.31-1.15-2.56-2.5-2.5s-2.51,1.1-2.5,2.5h0Z"/>
      <path d="M399.47,219.46c3.22,0,3.22-5,0-5s-3.22,5,0,5h0Z"/>
      <path d="M384.06,259.06c3.22,0,3.22-5,0-5s-3.22,5,0,5h0Z"/>
      <path d="M289.62,276.62c-.03.42-.19,1.08-.32,1.69-.19.85-.35,1.71-.4,2.58-.09,1.57.31,3.17.82,4.64s1.18,2.95,2.29,4.12,2.43,1.82,3.85,2.37,3.01,1.05,4.55.95c1.63-.1,3.01-.84,4.31-1.78,2.47-1.78,4.42-3.87,5.56-6.73s1.23-6.18.23-9.09c-.44-1.28-1.72-2.12-3.08-1.75-1.24.34-2.19,1.79-1.75,3.08.49,1.42.59,2.07.49,3.62-.05.69-.44,2.23-.78,2.92-.15.31-.32.6-.5.89-.05.08-.56.8-.35.54-.4.5-.86.96-1.33,1.38-.56.5-.81.69-1.47,1.14-.29.2-.6.38-.9.57-.28.13-.32.16-.12.08-.12.05-.25.09-.38.12-.46.09-1.01-.07-1.6-.24-.35-.1-.71-.22-1.05-.34-.17-.06-.33-.12-.5-.19.19.08.15.06-.13-.06-.31-.16-.61-.33-.92-.51-.37-.22.01.08-.32-.24-.42-.41-.7-.79-1.02-1.49.06.17.04.12-.07-.17-.07-.17-.13-.35-.19-.52-.13-.38-.25-.75-.36-1.14-.19-.69-.29-1.11-.3-1.72-.02-1.37.6-3.14.73-4.73.1-1.31-1.22-2.56-2.5-2.5-1.44.06-2.39,1.1-2.5,2.5h0Z"/>
      <path d="M312.62,273.14c2.06,2.02,4.48,3.6,6.93,5.1,1.07.65,2.27,1.25,3.24,2.05s1.36,2.03,2.29,2.87c1.4,1.25,3.63.77,4.18-1.1.76-2.6.33-5.36,1.03-7.95l-3.67,1.49c1.58.72,2.62,3.12,3.9,4.46,1.14,1.19,3.06,1.14,4.18-.05,1-1.06,1.08-2.63,1.22-4,.47-4.92.91-9.85.71-14.79-.05-1.35-1.11-2.5-2.5-2.5-1.31,0-2.55,1.14-2.5,2.5.11,2.77.03,5.53-.16,8.29-.09,1.32-.2,2.63-.32,3.94-.07.72-.13,1.44-.2,2.17-.03.31-.04.64-.09.96-.09.52-.3.46.11.08l1.1-.64-.23.03,1.93.25c.55.32-.14-.3-.25-.45-.16-.2-.32-.4-.47-.6-.44-.55-.87-1.11-1.31-1.66-.72-.92-1.51-1.8-2.59-2.29-1.44-.66-3.22-.19-3.67,1.49-.7,2.61-.27,5.37-1.03,7.95l4.18-1.1c-.83-.74-1.34-2.02-2.29-2.87-1.1-.98-2.4-1.71-3.65-2.47-2.3-1.4-4.59-2.79-6.52-4.68-2.3-2.25-5.84,1.28-3.54,3.54h0Z"/>
      <path d="M338.78,261.12c.34.66.37.72.61,1.41.21.61.4,1.22.6,1.83.42,1.33.88,2.67,1.58,3.89,1.32,2.31,3.5,3.97,6,4.82s5.93.95,7.77-1.26,2.76-5.22,2.73-8.21c-.03-3.34-.86-6.74-2.04-9.84-.48-1.26-1.69-2.13-3.08-1.75-1.21.33-2.23,1.81-1.75,3.08,1.06,2.8,1.87,5.77,1.86,8.67,0,.41-.02.82-.06,1.24-.03.34-.04.41-.03.21-.03.17-.06.35-.1.52-.08.34-.17.68-.28,1.02,0,.02-.3.73-.14.38-.15.32-.32.62-.51.92-.09.15-.19.29-.3.43.12-.17.08-.13-.11.1-.21.2-.21.21.01.04.25-.09.22-.1-.08-.02.27-.03.25-.04-.05,0-.12,0-.24.01-.36.02-.28,0-.56-.01-.84-.02-.3-.03-.32-.03-.05,0-.16-.03-.31-.06-.47-.1-.31-.07-.61-.18-.92-.27-.28-.11-.3-.11-.07-.02-.11-.05-.22-.1-.32-.16-.25-.13-.49-.26-.73-.41-.13-.09-.27-.18-.4-.27.19.15.17.13-.06-.05-.24-.22-.47-.43-.69-.67-.11-.12-.21-.24-.31-.36.12.16.14.16.03.02-.79-1.19-1.03-2-1.47-3.39-.47-1.47-.95-2.94-1.67-4.31-.62-1.2-2.29-1.56-3.42-.9-1.21.71-1.52,2.22-.9,3.42h0Z"/>
      <path d="M306.09,319.57c3.22,0,3.22-5,0-5s-3.22,5,0,5h0Z"/>
      <path d="M312.32,310.36c-.63,1.85.08,3.89,1.43,5.23,1.45,1.43,3.52,1.98,5.51,1.78s4.65-.49,5.6-2.47c.46-.96.56-2.06.69-3.11.13-.96.2-1.92.21-2.88.02-1.31-1.17-2.56-2.5-2.5-1.5.07-2.32,1.1-2.5,2.5-.25,1.89,1.45,3.6,2.88,4.56s3.27,1.35,4.93.92,3.04-1.71,3.72-3.27c.77-1.78.77-3.61.58-5.5-.13-1.3-1.06-2.56-2.5-2.5-1.24.06-2.64,1.11-2.5,2.5.06.56.12,1.13.13,1.69,0,.28,0,.56-.01.84l-.02.28c.02-.18,0-.15-.04.11-.03.1-.24.73-.04.26-.07.17-.17.34-.27.5-.1.15-.08.13.06-.05-.07.09-.15.17-.23.24-.13.12-.11.1.07-.04-.23.12-.26.15-.09.08.28-.15-.21.05-.29.07.56-.15.01-.05-.15-.03.46-.04.08,0-.16-.06-.58-.14.33.22-.2-.07-.19-.11-.38-.22-.56-.34.35.24-.05-.06-.16-.17-.05-.05-.42-.49-.23-.24.11.15.09.11-.07-.12.05.12.1.24.15.35h-5c-.01.58-.03,1.16-.09,1.73-.06.68-.08.79-.18,1.34-.03.18-.21.6-.16.78.16-.37.44-.64.84-.83l-.24.06c-.49.03-1.3.31-1.61.36-.18.03-1.13.07-1.29.04.3.04-.82-.23-.39-.08.4.14-.55-.31-.22-.1.21.13-.26-.25-.32-.32-.12-.13-.1-.11.06.07-.12-.22-.14-.25-.07-.08.17.28-.06-.55-.06-.17.03.2.03.17.03-.08-.04.32-.03.34.05.05.42-1.24-.48-2.79-1.75-3.08-1.39-.32-2.63.42-3.08,1.75h0Z"/>
      <path d="M340.45,303.27c3.22,0,3.22-5,0-5s-3.22,5,0,5h0Z"/>
      <path d="M252.47,330.43c3.22,0,3.22-5,0-5s-3.22,5,0,5h0Z"/>
      <path d="M263.33,332.77c3.22,0,3.22-5,0-5s-3.22,5,0,5h0Z"/>
      <path d="M275.33,327.21c3.22,0,3.22-5,0-5s-3.22,5,0,5h0Z"/>
      <path d="M192.88,305.39c3.22,0,3.22-5,0-5s-3.22,5,0,5h0Z"/>
      <path d="M197.18,298.07c.37.61.81,1.05,1.37,1.48.4.31.81.58,1.21.88l-.51-.39c.21.16.39.34.56.55l-.39-.51c.29.38.5.81.69,1.26l-.25-.6c.34.81.67,1.62,1.01,2.44.08.33.23.61.45.85.18.27.41.49.7.64.54.31,1.33.45,1.93.25s1.19-.57,1.49-1.15.5-1.32.25-1.93c-.23-.55-.46-1.1-.69-1.65-.28-.68-.54-1.38-.88-2.03-.31-.58-.73-1.15-1.24-1.58s-1.04-.76-1.56-1.15l.51.39c-.22-.17-.42-.35-.59-.57l.39.51c-.05-.07-.09-.13-.14-.21-.33-.54-.88-.98-1.49-1.15s-1.4-.09-1.93.25c-1.13.73-1.62,2.22-.9,3.42h0Z"/>
      <path d="M213,311.74c.07-.32.15-.51.41-.81.41-.47.89-.88,1.33-1.33.53-.55.99-1.16,1.43-1.78.2-.29.66-1.23.87-1.38l-1.26.34h.17c-.42-.1-.84-.21-1.26-.33,1.75.82,3.41,1.98,4.99,3.08,1,.7,2.15,1.05,3.29.38.84-.49,1.26-1.47,1.9-2.18.22-.24.45-.49.7-.68.1-.07.57-.32.45-.29.03,0,.46-.02.2-.03.19,0,.24.16.19.08-.21-.37-.1-.01.02.23-.17-.33.14.41.19.55.17.47.35.94.56,1.39.42.87,1.05,1.5,1.82,2.06,1.09.8,2.79.19,3.42-.9.74-1.27.2-2.62-.9-3.42.32.23.24.31.08-.06-.08-.16-.07-.14,0,.05-.04-.11-.09-.23-.13-.34-.22-.62-.44-1.26-.74-1.86-.67-1.33-1.87-2.33-3.34-2.63-3.61-.75-5.88,2-7.8,4.56l.9-.9-.12.07,1.93-.25c.44.23.45.21.04-.05-.2-.14-.4-.28-.6-.42-.3-.21-.61-.41-.92-.61-.72-.47-1.45-.92-2.19-1.35-.83-.49-1.71-1.11-2.7-1.14-1.05-.04-1.87.5-2.5,1.29-.94,1.17-1.68,2.43-2.75,3.49s-2.16,2.27-2.51,3.84c-.29,1.32.4,2.7,1.75,3.08,1.25.34,2.78-.42,3.08-1.75h0Z"/>
      <path d="M231.58,280.99c-1.91,2.86-3.75,5.77-5.51,8.72-.67,1.12-.29,2.79.9,3.42s2.7.3,3.42-.9c1.76-2.95,3.6-5.86,5.51-8.72.73-1.09.25-2.82-.9-3.42-1.26-.66-2.64-.27-3.42.9h0Z"/>
      <path d="M238.6,293.39c3.22,0,3.22-5,0-5s-3.22,5,0,5h0Z"/>
      <path d="M122.08,276.27c3.22,0,3.22-5,0-5s-3.22,5,0,5h0Z"/>
      <path d="M130.17,281.55c.76-.06,1.62-.24,2.38-.15l-1.26-.34-.31-.23-.64-1.1c.19.57.21,1.22.36,1.81.27,1.09.7,2.15,1.81,2.62.97.41,1.76.13,2.68-.15.3-.09.6-.15.91-.21.47-.1-.33.01-.02,0,.15,0,.31-.03.46-.03.12,0,.25,0,.37,0,.25.01.25,0,0-.03-.29-.02-.53-.17-.71-.45-.78-.62-.57-.52-.41-.19.07.15.14.31.21.47.26.6.53,1.19.79,1.79.55,1.26,1.11,2.51,1.66,3.77s2.37,1.57,3.42.9c1.24-.8,1.46-2.14.9-3.42-.89-2.02-1.7-4.11-2.68-6.09-.74-1.48-2.31-1.84-3.83-1.73-.65.05-1.31.14-1.95.29-.47.11-.93.35-1.39.42h1.33l-.11-.03,1.1.64-.09-.1.64,1.1c-.48-1.24-.31-2.88-1.31-3.87-1.18-1.16-2.82-.8-4.31-.69-1.3.1-2.56,1.08-2.5,2.5.06,1.27,1.1,2.61,2.5,2.5h0Z"/>
      <path d="M146.27,291.87c3.22,0,3.22-5,0-5s-3.22,5,0,5h0Z"/>
      <path d="M98.02,124.08c-2.41.01-4.9-.15-7.27.37-2.14.47-4.14,1.58-5.75,3.06-3.59,3.29-4.65,8.4-3.85,13.05.18,1.04.46,2.06.83,3.06.44,1.19.93,2.57,1.86,3.49,1,.98,2.24,1.32,3.61,1.39,1.19.06,2.43.11,3.63.06,5.19-.24,8.38-6.21,6.09-10.76-2.84-5.65-10.33-3.12-14.4-.55-2.71,1.71-.21,6.04,2.52,4.32,1.35-.85,2.76-1.54,4.3-1.96.68-.18,1.17-.29,1.85-.24.42.03.83.18,1.07.44.55.58.61,1.48.21,2.3-.22.46-.57.92-.83,1.13-.51.41-.93.33-1.71.32-.86-.01-1.72-.02-2.58-.05-.03,0-.48-.02-.48-.02.01-.08.32.2.35.2.03,0,.06.32-.05-.05-.06-.21-.24-.43-.33-.63-.62-1.32-1.06-2.85-1.18-4.31-.23-2.86.5-5.75,2.74-7.73,2.5-2.22,6.05-1.84,9.37-1.86s3.22-5.01,0-5h0Z"/>
      <path d="M81.45,167.02c4.28-3.94,9.25-7.13,14.76-9.51.9-.39,1.31-1.62,1.19-2.49-.12-.92-.83-1.88-1.79-2.08-5.46-1.13-11.02-1.75-16.59-1.8-1.31-.01-2.56,1.16-2.5,2.5s1.1,2.49,2.5,2.5c5.24.05,10.2.57,15.26,1.62l-.6-4.57c-5.8,2.5-11.12,6.02-15.77,10.3-.97.89-.97,2.65,0,3.54,1.03.95,2.51.95,3.54,0h0Z"/>
      <path d="M168.55,245.62c3.22,0,3.22-5,0-5s-3.22,5,0,5h0Z"/>
      <path d="M239.6,233.88c3.22,0,3.22-5,0-5s-3.22,5,0,5h0Z"/>
      <path d="M171.52,261.48c18.01-4.45,36.26-7.26,54.66-9.54,5.21-.65,10.44-1.2,15.7-1.16,3.22.02,3.22-4.98,0-5-9.37-.07-18.75,1.5-28.01,2.73s-18.74,2.74-28.02,4.62c-5.24,1.06-10.46,2.24-15.65,3.53-3.12.77-1.8,5.59,1.33,4.82h0Z"/>
      <path d="M138.29,155.4c3.22,0,3.22-5,0-5s-3.22,5,0,5h0Z"/>
      <path d="M185.28,148.77c3.22,0,3.22-5,0-5s-3.22,5,0,5h0Z"/>
      <path d="M132.18,164.72c-2.24,3.87-3.08,8.3-.75,12.34,2.1,3.63,5.91,5.74,9.83,6.87,4.16,1.2,8.68,1.63,12.97,1.08,4.53-.58,7.86-3.02,10.45-6.7s3.96-8.19,5.23-12.5c.47-1.58-.82-3.14-2.41-3.16-.28,0-.56,0-.84-.01-1.78-.02-2.65,1.61-2.41,3.16.65,4.21,1.78,8.35,5.51,10.86s8.97,3.23,13.35,2.57c4.11-.61,8.33-2.93,10.47-6.6,1.19-2.05,1.26-4.39,1.04-6.69s-.71-4.77-1.5-7.05c-.44-1.28-1.71-2.12-3.08-1.75-1.24.34-2.19,1.79-1.75,3.08.59,1.7,1.06,3.46,1.28,5.26.18,1.47.46,3.28-.31,4.63-1.43,2.5-4.52,3.91-7.27,4.27-3.1.41-7.13-.16-9.71-2.04-2.42-1.76-2.79-5.14-3.21-7.88l-2.41,3.16c.28,0,.56,0,.84.01l-2.41-3.16c-1.14,3.86-2.3,7.79-4.61,11.14-1.05,1.52-2.47,3.05-4.2,3.8-1.88.82-4.11.84-6.12.81-4.08-.06-8.86-.78-12.22-3.27-1.37-1.02-2.52-2.48-2.88-4.17-.41-1.96.47-3.88,1.43-5.54,1.62-2.79-2.7-5.31-4.32-2.52h0Z"/>
      <path d="M257.79,127.42c3.22,0,3.22-5,0-5s-3.22,5,0,5h0Z"/>
      <path d="M298.21,110.12c3.22,0,3.22-5,0-5s-3.22,5,0,5h0Z"/>
      <path d="M262.16,136.46c2.01,5.14,6.34,9.73,11.84,11.11,1.71.43,3.43-.09,4.29-1.7.77-1.44,1.02-3.24,1.33-4.82.68-3.5,1.33-7,1.99-10.51l-4.57.6c2.33,4.33,7.84,11.17,13.5,8.38,2.28-1.12,3.32-3.58,3.95-5.91.84-3.14,1.46-6.35,1.93-9.57.19-1.33-.33-2.69-1.75-3.08-1.17-.32-2.88.4-3.08,1.75-.35,2.42-.79,4.82-1.34,7.2-.33,1.42-.56,3.84-1.67,4.93-.99.97-2.73-.6-3.47-1.29-1.54-1.43-2.76-3.09-3.76-4.93s-4.17-1.53-4.57.6c-.48,2.53-.96,5.07-1.44,7.6-.23,1.2-.44,2.41-.69,3.61-.13.62-.26,1.24-.42,1.85-.08.31-.17.61-.26.91-.2.55-.2.6,0,.15l1.1-.64c.19-.08.64.2.08.01-.29-.1-.59-.19-.88-.3-.43-.17-.85-.37-1.26-.59-.9-.49-1.76-1.06-2.52-1.74-1.52-1.36-2.79-3.03-3.53-4.94-.49-1.26-1.68-2.13-3.08-1.75-1.2.33-2.24,1.81-1.75,3.08h0Z"/>
      <path d="M249.77,48.77c.88-2.49,1.66-5.01,2.33-7.56.17-.63-.21-1.39-.87-1.54s-1.36.2-1.54.87c-.67,2.55-1.45,5.07-2.33,7.56-.22.62.25,1.4.87,1.54.7.16,1.3-.21,1.54-.87h0Z"/>
      <path d="M256.29,48.14c1.61,0,1.61-2.5,0-2.5s-1.61,2.5,0,2.5h0Z"/>
      <path d="M267.23,43.26c1.61,0,1.61-2.5,0-2.5s-1.61,2.5,0,2.5h0Z"/>
      <path d="M266.35,37c2.82.87,5.75,1.34,8.7,1.42.65.02,1.28-.59,1.25-1.25s-.55-1.23-1.25-1.25c-2.75-.08-5.38-.52-8.03-1.33-.62-.19-1.39.23-1.54.87-.15.68.2,1.33.87,1.54h0Z"/>
      <path d="M265.15,50.1c-1.02-.09-2.03.26-2.92.73-.82.43-1.57,1.01-2.07,1.79-.54.84-.73,1.87-.85,2.85s-.19,2.04.24,2.95c.77,1.63,2.9,2.4,4.6,2.19,1.79-.21,3.35-1.33,4.07-3,.46-1.05.55-2.12.35-3.24-.19-1.06-.67-2.06-1.12-3.03-.28-.59-1.18-.79-1.71-.45-.61.39-.75,1.08-.45,1.71.32.67.53,1.11.73,1.83.05.18.09.35.13.53.03.14.01.04,0,0,.01.09.02.18.02.27,0,.18,0,.35,0,.53,0,.05-.04.24,0,0-.01.07-.03.15-.04.22-.03.15-.08.29-.12.44-.01.04-.09.22,0,.02-.03.07-.06.14-.1.21-.06.12-.13.23-.2.34-.04.06-.08.13-.13.19-.12.16.19-.2-.05.06-.09.1-.18.19-.28.28-.02.02-.2.18-.09.09.1-.08-.04.03-.05.04-.13.09-.25.17-.39.24-.07.04-.14.07-.21.1.16-.07,0,0-.08.02-.13.04-.26.07-.4.1-.24.06-.07.01-.01,0-.08,0-.16.01-.23.02-.14,0-.27,0-.41,0-.03,0-.28-.03-.12,0s-.15-.03-.18-.04c-.13-.03-.26-.07-.39-.11-.03-.01-.25-.1-.12-.04s-.09-.05-.11-.06c-.12-.06-.24-.14-.35-.21-.21-.14-.06-.05-.03-.02-.07-.07-.14-.14-.21-.21-.14-.14.08.14-.02-.03-.03-.05-.06-.1-.09-.15.1.21-.05-.35-.02-.12-.04-.36-.01-.75.02-1.11.03-.39.04-.45.12-.86.07-.33.14-.66.27-.98.08-.19-.07.14.03-.04.05-.09.1-.18.15-.27.02-.03.14-.18.03-.05.07-.08.14-.15.21-.23.04-.04.09-.08.14-.13.27-.24-.16.09.14-.11.14-.09.28-.18.43-.27.66-.38,1.18-.58,1.89-.51.65.06,1.28-.62,1.25-1.25-.03-.73-.55-1.19-1.25-1.25h0Z"/>
      <path d="M394.86,233.67c-1.85,1.58-2.37,4.23-2.29,6.56.04,1.29.35,2.59,1.28,3.54.82.84,1.99,1.27,3.14,1.44,1.38.21,2.78.29,4.02-.47.97-.59,1.78-1.46,2.36-2.43,1.12-1.88,1.45-4.34.71-6.42-.23-.65-.53-1.28-.98-1.81-.55-.64-1.31-.93-2.13-1.04-1.65-.23-3.31-.23-4.95-.03-.67.08-1.25.52-1.25,1.25,0,.61.58,1.33,1.25,1.25,1.18-.14,2.37-.19,3.56-.11.46.03.95.04,1.4.18.29.09.42.37.59.72.28.58.41,1.32.41,2.04,0,.44-.02.61-.09.94-.04.2-.09.4-.15.59-.03.09-.05.17-.08.26,0,0-.13.36-.07.2-.32.77-.7,1.3-1.27,1.82-.26.24-.5.44-.85.59-.45.19-.96.12-1.43.09-.68-.05-1.48-.2-2.08-.56-.23-.14-.41-.31-.57-.59-.18-.32-.27-.77-.29-1.14-.13-1.86.13-3.89,1.55-5.1.51-.44.45-1.32,0-1.77-.51-.51-1.25-.44-1.77,0h0Z"/>
      <path d="M112.84,211.38c-1.87.02-3.76-.06-5.62.07-1.7.12-3.26.65-4.26,2.11-1.96,2.83-1.47,7.71,2.61,8.02,1.85.14,3.79.05,5.65.03s3.88-.11,5.63-.82c1.58-.64,2.76-1.93,3.33-3.54s.35-3.43-1.1-4.45c-1.63-1.14-3.73-1.49-5.68-1.51-2.24-.02-4.49,0-6.73,0-1.61,0-1.61,2.5,0,2.5,1.49,0,2.98,0,4.47,0,1.37,0,2.81-.12,4.16.16.84.17,2.61.51,2.67,1.56s-.61,2.07-1.42,2.63c-1.1.76-2.67.84-3.96.92-1.48.09-2.97.04-4.45.02-.69,0-1.37.02-2.06.01-.54,0-1.04-.03-1.41-.47-.72-.88-.33-2.36.12-3.27.6-1.23,1.79-1.4,3.04-1.43,1.66-.04,3.33-.03,5-.05s1.61-2.51,0-2.5h0Z"/>
      <path d="M98.32,211.96c-.85-.08-1.74.07-2.57.22s-1.7.36-2.43.79c-1.99,1.17-2.91,4.22-3.04,6.36-.08,1.39,0,2.81.03,4.2.02,1.28-.27,3,.91,3.84.81.58,1.89.86,2.86,1.04,1.1.2,2.23.31,3.34.19.67-.07,1.25-.52,1.25-1.25,0-.62-.57-1.33-1.25-1.25-1.59.18-3.16-.09-4.63-.69l-.16-.09c.21.26.28.22.2-.11.05-.23,0-.6-.01-.84,0-.56-.02-1.12-.03-1.68-.02-1.12-.08-2.25-.02-3.36.06-.95.35-1.92.77-2.77.19-.39.41-.77.7-1.1.05-.06.51-.46.23-.26.1-.07.22-.13.33-.18.88-.4,2.41-.66,3.5-.55.67.07,1.25-.62,1.25-1.25,0-.73-.58-1.18-1.25-1.25h0Z"/>
      <path d="M104.38,227.55c-.73,1.47-.96,3.3-2.02,4.58-.45.55-1.53,1.31-2.21.6-.47-.5-.23-1.97-.23-2.6.01-3.97.14-7.95.38-11.91.19-3.1.08-8.55,3.49-10.15.79-.37,1.77-.28,2.62-.3s1.7-.03,2.54,0c1.68.07,3.46.86,2.94,2.88-.4,1.56,2.01,2.22,2.41.66s.06-3.23-1.04-4.45c-1.21-1.33-2.99-1.57-4.7-1.6-1.86-.04-4.13-.26-5.85.56-1.63.78-2.79,2.37-3.5,3.98-1.7,3.86-1.47,8.64-1.63,12.78-.09,2.35-.15,4.7-.16,7.05-.01,1.75-.3,3.82,1.21,5.06s3.53.9,4.92-.26c1.77-1.47,2.01-3.71,2.98-5.65.72-1.43-1.44-2.7-2.16-1.26h0Z"/>
      <path d="M104.83,229.26c.26.11-.02-.07.15.1.05.05.3.34.24.26.04.06.19.4.16.25-.08-.33-.03.28-.02.31.1,1.06.26,2.44,1.02,3.26.67.72,1.92,1.15,2.88,1.24,1.02.1,1.98-.31,2.78-.92,1.71-1.3,2.58-3.16,2.81-5.27s.02-4.42-.19-6.58c-.07-.67-.53-1.25-1.25-1.25-.62,0-1.32.57-1.25,1.25.19,1.91.33,3.85.25,5.76-.07,1.57-.52,3.04-1.79,4.04-.51.4-.98.56-1.6.36-.17-.06-.63-.17-.76-.31-.2-.21-.25-.81-.31-1.09-.15-.77-.05-1.54-.48-2.23-.31-.49-.81-1.13-1.37-1.37-.62-.26-1.34-.19-1.71.45-.31.52-.18,1.44.45,1.71h0Z"/>
      <path d="M108.95,57.04c-2.02,2.91-4.25,5.66-6.67,8.25-.46.49-.49,1.28,0,1.77s1.3.49,1.77,0c2.57-2.74,4.92-5.67,7.06-8.76.38-.56.1-1.39-.45-1.71-.62-.36-1.32-.11-1.71.45h0Z"/>
      <path d="M114.92,60.58c-1.32,1.1-2.29,2.55-3.24,3.95-.22.33-.45.66-.68.99-.12.17-.24.34-.37.51-.06.08-.11.15-.17.23.16-.2-.07.09-.08.1-.26.32-.53.63-.82.92-.13.13-.27.26-.41.38-.08.07-.17.15-.26.22-.2.17.13-.09-.1.08-.52.39-.84,1.1-.45,1.71.33.52,1.15.86,1.71.45,1.48-1.1,2.56-2.52,3.58-4.03.47-.69.93-1.39,1.44-2.05.08-.11-.1.12.05-.06.07-.09.14-.18.21-.26.13-.16.27-.31.41-.47.29-.32.6-.61.94-.89.5-.42.47-1.34,0-1.77-.54-.49-1.23-.45-1.77,0h0Z"/>
      <path d="M105.37,59.79l10.68,6.86c1.36.87,2.61-1.29,1.26-2.16-3.56-2.29-7.12-4.57-10.68-6.86-1.36-.87-2.61,1.29-1.26,2.16h0Z"/>
      <path d="M101.03,63.39c2.39,1.03,4.79,2.02,7.2,2.99,1.87.75,3.86,1.44,5.23,2.99,1.07,1.21,2.83-.56,1.77-1.77-1.49-1.69-3.6-2.54-5.64-3.35-2.45-.98-4.88-1.98-7.3-3.02-.62-.27-1.34-.18-1.71.45-.31.53-.18,1.44.45,1.71h0Z"/>
      <path d="M119.41,66.66c-.57,2.86-1.07,5.73-1.49,8.61-.07.51,0,.99.45,1.31.41.3.94.35,1.39.1,2.71-1.51,5.62-2.57,8.66-3.2.66-.14,1.04-.92.87-1.54-.19-.69-.87-1.01-1.54-.87-3.24.67-6.37,1.85-9.26,3.45l1.84,1.41c.42-2.88.92-5.76,1.49-8.61.13-.66-.19-1.35-.87-1.54-.62-.17-1.4.21-1.54.87h0Z"/>
      <path d="M132.31,74.47c-2.12-.09-4.3.01-6.23.99-1.14.57-2,1.48-1.96,2.83.03,1.1.47,2.18,1.11,3.07,1.34,1.86,3.45,3.25,5.83,2.74s3.58-2.97,3.41-5.19c-.1-1.32-.5-2.6-1.4-3.6-.76-.84-1.8-1.37-2.81-1.85-.61-.29-1.35-.17-1.71.45-.32.54-.16,1.42.45,1.71.33.16.66.31.98.49.17.09.34.19.5.29.07.05.14.09.21.14.03.02.31.23.15.11.58.47.81.84.99,1.58.19.77.19,1.46-.05,2.23-.01.03-.09.21-.01.04-.03.07-.07.15-.11.22-.03.06-.26.41-.14.25-.1.13-.22.24-.33.35-.25.26.09-.05-.08.07-.08.06-.17.11-.26.16-.19.11-.54.17-.75.18-.35,0-.67-.04-1.1-.22.15.06-.26-.15-.29-.17-.15-.09-.3-.18-.44-.29.12.1-.05-.04-.06-.05-.08-.08-.16-.15-.24-.22-.14-.14-.28-.28-.41-.44-.42-.49-.78-1.14-.93-1.82,0-.02-.02-.24-.01-.07,0-.09-.01-.19,0-.28.01-.38.02-.1.01-.08-.05.12.02-.05.04-.06-.14.14.04-.02.05-.02-.17.1.06-.04.1-.06.17-.11.34-.21.52-.3.24-.12.19-.1.44-.19.21-.08.43-.14.64-.2s.44-.1.66-.14c.09-.02.18-.03.27-.04-.19.03.22-.02.21-.02.91-.09,1.83-.08,2.74-.05.65.03,1.28-.59,1.25-1.25-.03-.7-.55-1.22-1.25-1.25h0Z"/>
      <path d="M99.09,72.81c-.84.36-1.24,1.28-1.49,2.1-.11.35-.22.71-.36,1.05s.11-.22-.05.1c-.04.08-.08.17-.12.25-.09.18-.18.36-.28.53-.19.33-.4.65-.63.96-.06.08-.15.19-.04.05-.07.08-.14.17-.21.25-.12.14-.24.27-.37.41-.28.29-.58.56-.88.82-.18.15.07-.04-.05.04-.07.05-.15.11-.22.16-.18.13-.36.25-.55.36-.56.34-.82,1.13-.45,1.71s1.11.82,1.71.45c1.46-.9,2.69-2.12,3.61-3.58.45-.71.8-1.48,1.08-2.26.12-.35.22-.7.34-1.05-.1.31.04-.17.12-.2-.1.12-.12.15-.06.08.03-.03.06-.06.09-.09l-.11.09c.05-.03.11-.06.16-.08.6-.26.78-1.19.45-1.71-.4-.63-1.06-.73-1.71-.45h0Z"/>
      <path d="M95.6,74.07c.14-.05.14-.05,0-.02-.14-.02-.13-.02.02.01.15.05.3.09.45.14.3.1.6.22.89.34-.22-.09.21.09.25.11.11.05.22.1.33.15.29.13.58.26.87.39,1.26.56,2.5,1.02,3.89,1.14.65.06,1.28-.62,1.25-1.25-.03-.73-.55-1.19-1.25-1.25-.08,0-.16-.01-.23-.02.14.02.13.02-.02,0-.15-.03-.31-.06-.46-.1-.3-.07-.6-.16-.9-.27-.15-.05-.3-.11-.44-.16-.04-.02-.47-.19-.25-.1-.29-.12-.58-.26-.87-.39-.64-.29-1.28-.58-1.94-.83-.7-.27-1.5-.57-2.24-.29-.61.23-1.09.85-.87,1.54.19.6.88,1.12,1.54.87h0Z"/>
      <path d="M106.73,76.08c-.77.81-2,1.21-2.84,2.04-.99.98-1.71,2.29-2.49,3.44-.43.64-.97,1.24-.74,2.07.21.74,1.08,1.18,1.66,1.61,1.15.86,2.3,1.73,3.52,2.5,1.36.87,2.62-1.3,1.26-2.16-.78-.5-1.53-1.03-2.28-1.58-.34-.25-.69-.51-1.03-.77-.19-.14-.37-.28-.56-.42-.09-.07-.19-.14-.28-.21-.24-.2-.21-.12.1.24v.66c-.12.38.14-.15.2-.24.1-.15.21-.31.31-.46.22-.33.45-.66.67-1,.37-.55.71-1.14,1.15-1.64.84-.98,2.19-1.38,3.12-2.34,1.11-1.16-.65-2.93-1.77-1.77h0Z"/>
      <path d="M104.99,81.29c.37.22.73.47,1.07.73l-.25-.2c.23.18.46.37.68.57.24.22.55.37.88.37.17,0,.33-.03.48-.11.15-.05.29-.14.4-.26.22-.24.38-.55.37-.88s-.12-.66-.37-.88c-.62-.56-1.29-1.07-2-1.5-.28-.17-.65-.21-.96-.13-.29.08-.6.3-.75.57-.15.29-.23.64-.13.96s.29.58.57.75h0Z"/>
      <path d="M107.42,78.42c2.1.96,4.23,1.88,6.38,2.74.61.24,1.4-.27,1.54-.87.16-.72-.22-1.28-.87-1.54-.51-.21-1.02-.41-1.53-.63-.11-.05-.22-.09-.33-.14-.04-.02-.47-.2-.25-.1-.24-.1-.47-.2-.71-.3-1-.43-1.99-.87-2.97-1.32-.59-.27-1.37-.19-1.71.45-.29.55-.19,1.42.45,1.71h0Z"/>
      <path d="M112.46,90.94c1.65-2.48,3.36-4.92,5.12-7.32l-2.28-.3c.54,1.62.7,3.36.35,5.05-.18.86-.5,1.68-.73,2.53-.27.98-.36,1.92-.22,2.93.11.77,1.23,1.17,1.84.75,2.6-1.8,4.72-4.22,6.09-7.07.29-.61.17-1.35-.45-1.71-.55-.32-1.42-.16-1.71.45-1.18,2.47-2.94,4.62-5.19,6.18l1.84.75c-.1-.74.19-1.54.41-2.23.28-.88.54-1.73.67-2.65.27-1.89.12-3.81-.48-5.63-.36-1.08-1.65-1.16-2.28-.3-1.76,2.4-3.47,4.84-5.12,7.32-.37.56-.11,1.38.45,1.71.61.36,1.34.12,1.71-.45h0Z"/>
      <path d="M93.86,85.25c-2.03-.18-4.72-.76-5.97,1.37-.59,1-.78,2.41-.58,3.54.18.98.82,1.84,1.59,2.46.85.68,1.87,1.25,2.94,1.49,1.13.25,2.25.09,3.29-.42,2.01-1.01,2.97-3.34,2.64-5.5-.18-1.18-.85-2.25-1.96-2.74-1.05-.47-2.24-.48-3.33-.14-.62.2-1.09.88-.87,1.54s.87,1.08,1.54.87c.14-.04.28-.08.43-.11,0,0,.35-.05.16-.03-.16.01.07,0,.11,0,.15,0,.3.01.44,0,.19,0-.19-.05,0,0,.11.02.21.04.32.07.04,0,.25.08.1.03s.06.03.09.05c.06.03.12.08.18.11.14.06-.15-.18.03.04.05.06.1.1.14.16-.04-.06-.1-.16,0,.04.01.02.1.21.03.05.04.1.07.2.09.3s.05.21.06.31c0-.06-.01-.2,0,.05,0,.17.01.34,0,.51-.01.26-.07.5-.21.9-.01.03-.1.21-.02.05-.04.08-.07.15-.12.22-.08.15-.17.29-.27.42.11-.14-.03.02-.04.04-.06.06-.11.12-.17.17s-.12.11-.18.16c.17-.14-.11.07-.14.09-.14.09-.28.17-.43.23.18-.08,0,0-.04.01-.08.02-.15.05-.23.07-.1.03-.2.05-.3.07-.2.04.18,0-.03,0-.18,0-.37.02-.55,0,.15.02-.14-.04-.17-.04-.1-.02-.19-.05-.28-.08-.16-.05-.31-.11-.39-.14-.35-.16-.69-.34-1.01-.55-.07-.04-.13-.09-.2-.14-.16-.12.12.11-.03-.03-.14-.12-.27-.24-.39-.37-.05-.06-.11-.12-.15-.18.04.05.09.16,0-.03-.04-.07-.08-.13-.12-.2-.13-.21,0,.13-.05-.12-.02-.08-.04-.15-.06-.22.01.05,0,.25,0-.09,0-.21,0-.41.03-.62,0,0,.04-.24.06-.34.04-.2.09-.4.17-.6-.1.25.24-.39.11-.17.02-.03.18-.17.02-.04.02-.02.29-.17.16-.11s.09-.03.12-.04c.04-.01.37-.08.24-.06-.15.02.1,0,.13,0,.1,0,.2,0,.31,0,.93,0,1.86.14,2.78.22.65.06,1.28-.62,1.25-1.25-.03-.73-.55-1.19-1.25-1.25h0Z"/>
      <path d="M101.41,89.01c-.59,1.71-1.44,3.32-2.5,4.8l2.16,1.26c.51-.84,1.01-1.5,1.68-2.2.32-.34.67-.66,1.02-.96.1-.08.98-.71.98-.72,0,0-.34.04-.33-.02,0,0,.2.12.22.13-.15-.11.05.06.07.09.06.06.06.06,0-.01l.07.1s.14.29.1.19c-.04-.12.04.18.05.21-.04-.17,0,.01,0,.1,0,.06-.04.3,0,.1-.02.07-.07.16-.06.19.04.29-.1-.17.05-.01,0,0-.19.12-.02.04-.11.05-.24.08-.36.1.14-.02.03,0-.05,0-.11,0-.22,0-.33,0-.24,0-.48-.03-.71-.06-.63-.08-1.31.64-1.25,1.25.15,1.47-.09,2.83-.8,4.11-.33.59-.14,1.36.45,1.71s1.38.14,1.71-.45c.9-1.63,1.33-3.51,1.14-5.37l-1.25,1.25c1.55.2,3.21-.15,3.8-1.8.52-1.44-.15-3.11-1.41-3.92-1.58-1.02-3.1.34-4.24,1.37-1.06.96-1.97,2.1-2.71,3.32-.35.58-.13,1.37.45,1.71.63.37,1.32.1,1.71-.45,1.17-1.66,2.08-3.48,2.75-5.4.22-.64-.25-1.37-.87-1.54-.69-.19-1.32.23-1.54.87h0Z"/>
      <path d="M109.43,95.89c.76.21,1.5.46,2.22.77l-.3-.13c.68.29,1.33.62,1.97.98.57.33,1.39.15,1.71-.45s.16-1.36-.45-1.71c-1.4-.81-2.92-1.45-4.49-1.88-.63-.17-1.39.21-1.54.87s.2,1.35.87,1.54h0Z"/>
      <path d="M110.21,95.46c-.18.24-.36.47-.54.71-.04.06-.09.12-.13.18,0,0-.2.26-.1.14.08-.11-.06.07-.07.09-.05.06-.09.12-.14.17-.37.48-.75.96-1.13,1.43-.76.95-1.54,1.88-2.33,2.81-.43.5-.52,1.29,0,1.77.47.43,1.31.53,1.77,0,1.68-1.96,3.29-3.97,4.84-6.03.39-.52.1-1.42-.45-1.71-.66-.35-1.29-.11-1.71.45h0Z"/>
      <path d="M116.16,96.96c-.32.47-.65.93-.99,1.38-.04.05-.07.11-.11.15.11-.11.08-.11,0,0s-.17.22-.26.33c-.18.22-.36.44-.54.65-.73.86-1.51,1.68-2.32,2.46-.47.45-.49,1.32,0,1.77s1.26.48,1.77,0c1.73-1.65,3.28-3.5,4.63-5.48.37-.54.12-1.41-.45-1.71-.63-.33-1.32-.13-1.71.45h0Z"/>
      <path d="M120.57,97.95c-.11.51-.25,1.01-.44,1.5-.02.06-.04.11-.06.17-.03.08-.14.23,0,0-.06.1-.1.22-.15.33-.11.24-.24.48-.37.71-.12.22-.26.44-.4.65-.07.11-.15.22-.23.33-.03.04-.07.09-.1.14.03-.06.15-.19.05-.06-.08.09-.16.18-.24.27-.04.04-.08.07-.12.11-.16.14-.05,0,.04-.02-.06.01-.23.12-.27.16.07-.07.25-.09.05-.03-.06.02-.13.03-.19.04-.29.04-.61.34-.75.57-.16.27-.22.66-.13.96s.29.59.57.75c.32.17.61.18.96.13,1.31-.19,2.2-1.5,2.82-2.56s1.09-2.24,1.35-3.44c.14-.64-.19-1.38-.87-1.54-.63-.14-1.39.19-1.54.87h0Z"/>
      <path d="M115.89,101.23c.79.21,1.58.45,2.36.71.3.1.7.03.96-.13s.51-.45.57-.75c.07-.32.06-.68-.13-.96s-.43-.47-.75-.57c-.78-.26-1.56-.5-2.36-.71-.31-.08-.68-.04-.96.13-.26.15-.51.45-.57.75-.07.32-.06.68.13.96s.43.49.75.57h0Z"/>
      <path d="M82.75,93.66c-.52.74-.99,1.52-1.37,2.35-.41.88-.82,1.81-1.03,2.76-.14.62-.15,1.24.13,1.81.24.49.66.85,1.12,1.12.84.49,1.78.85,2.72,1.07.64.15,1.38-.2,1.54-.87.15-.64-.19-1.38-.87-1.54-.37-.09-.74-.19-1.1-.33-.08-.03-.16-.06-.24-.09.12.05,0,0-.05-.02-.17-.08-.35-.16-.52-.26-.15-.08-.33-.16-.46-.28.1.08.06.03,0-.03.07.08.07.13.12.21,0,.07,0,.07,0,0,0-.04,0-.08,0-.11,0-.13-.04.14.02-.07.06-.18.1-.36.16-.54.11-.35.24-.69.37-1.04l.05-.12q-.03.08,0,0c.03-.08.07-.16.11-.24.08-.18.16-.35.25-.53.35-.7.75-1.36,1.2-2,.38-.54.11-1.41-.45-1.71-.64-.34-1.31-.12-1.71.45h0Z"/>
      <path d="M83.65,98.59c.58.27,1.18.49,1.82.58.17.05.33.06.5.02.17,0,.32-.06.46-.15.15-.08.26-.19.35-.32.11-.12.19-.26.22-.43.07-.32.06-.68-.13-.96l-.2-.25c-.16-.15-.34-.26-.55-.32-.45-.06-.89-.18-1.32-.36l.3.13c-.07-.03-.14-.06-.2-.09-.14-.09-.3-.14-.46-.15-.17-.04-.33-.03-.5.02-.16.04-.3.11-.43.22-.14.09-.24.21-.32.35-.15.29-.23.64-.13.96.1.29.28.61.57.75h0Z"/>
      <path d="M85.65,95.87c1.24.45,2.51.83,3.79,1.13.64.15,1.38-.2,1.54-.87s-.19-1.38-.87-1.54c-1.28-.3-2.55-.68-3.79-1.13-.29-.11-.7-.03-.96.13s-.51.45-.57.75c-.16.7.21,1.3.87,1.54h0Z"/>
      <path d="M80.98,104.27l-1.95,8.94c-.35,1.59,1.84,2.15,2.41.66s1.25-2.94,2.03-4.34c.2-.36.4-.72.62-1.07.05-.08.11-.16.15-.24.13-.24.08-.04-.14-.1-.47-.1-.24-.32-.2-.05.03.17.15.39.21.56.11.33.24.67.24,1.02,0,.24-.04.4-.17.61-.02.03-.1.06-.12.07-.82.16-1.56.13-2.09.92s-.36,1.63-.2,2.49.34,1.66.54,2.48c.38,1.56,2.79.9,2.41-.66-.12-.51-.24-1.03-.35-1.55-.08-.39-.08-1.01-.27-1.35-.03-.05-.03-.11,0-.17,0,.18-.12.31-.36.39,0,0,.32-.04.4-.05.48-.05.92-.15,1.34-.41,1.83-1.15,1.47-3.46.78-5.14-.42-1.04-1.29-1.84-2.49-1.57-1.03.23-1.59,1.08-2.09,1.94-1.04,1.78-1.91,3.65-2.64,5.58l2.41.66,1.95-8.94c.14-.66-.2-1.35-.87-1.54-.63-.17-1.39.21-1.54.87h0Z"/>
      <path d="M107.49,112.1c.22-.75.48-1.49.8-2.2.15-.34.31-.67.48-1,.1-.2.21-.39.31-.59l.11-.19c.16-.25.15-.26-.04-.02l-.96.13c-.2-.03-.36-.36-.1.01.08.12.16.24.24.37.14.22.28.45.41.68.28.48.56.97.87,1.43.68,1,1.62,2.07,2.84,2.39,1.36.35,2.61-.8,3.61-1.57s1.95-1.55,3.13-1.91c1.54-.47.88-2.88-.66-2.41-1.72.52-3.02,1.67-4.45,2.7-.31.22-.82.43-1.07.71-.04.02-.08.04-.12.07.31.06.34.04.1-.05-.12-.11-.3-.17-.43-.27-.5-.41-.85-.97-1.18-1.51-.71-1.17-2.13-4.31-3.88-2.68-.64.6-1.04,1.66-1.39,2.45-.41.91-.76,1.84-1.05,2.8-.47,1.54,1.95,2.2,2.41.66h0Z"/>
      <path d="M130.86,36.27c1.61,0,1.61-2.5,0-2.5s-1.61,2.5,0,2.5h0Z"/>
      <path d="M142.8,42.43c1.61,0,1.61-2.5,0-2.5s-1.61,2.5,0,2.5h0Z"/>
      <path d="M127.25,40.45l2.28,6.58c.18.52.63.92,1.21.92s1.06-.39,1.21-.92c.24-.87.65-1.64,1.24-2.28l-2.09-.55c.25.81.53,1.62.83,2.42.15.4.31.79.48,1.18.19.46.36,1,.71,1.37.4.42.99.63,1.57.47.5-.14.84-.54,1.2-.9.63-.64,1.27-1.28,1.9-1.92.47-.48.48-1.29,0-1.77s-1.29-.48-1.77,0c-.4.41-.81.82-1.21,1.22-.19.19-.38.39-.58.58-.1.1-.19.19-.29.29l-.12.12c-.25.22-.13.2.37-.07l.63.17c.06.05.11.11.16.16-.04-.08-.08-.16-.11-.24-.07-.15-.13-.29-.19-.44-.14-.34-.28-.69-.41-1.04-.28-.75-.54-1.5-.78-2.27-.27-.86-1.43-1.27-2.09-.55-.89.97-1.54,2.11-1.89,3.39h2.41l-2.28-6.58c-.22-.64-.86-1.06-1.54-.87-.62.17-1.09.9-.87,1.54h0Z"/>
      <path d="M370.37,111.04c1.82,1.46,4.5,2.74,6.9,2.26,1.08-.21,1.88-.94,2.34-1.92.52-1.11.38-2.38.89-3.47l-1.96.25c1.06,1.06,2.43,1.63,3.9,1.88,1.54.26,3.12.55,4.35-.59,2.22-2.05,4.65-5.37,3.61-8.54-.5-1.52-2.91-.87-2.41.66.69,2.12-1.17,4.2-2.52,5.65-.4.42-.5.6-1.06.55-.53-.05-1.06-.08-1.59-.19-.95-.19-1.83-.49-2.52-1.19-.52-.53-1.62-.49-1.96.25-.39.84-.52,1.65-.68,2.55-.1.54-.2,1.4-.79,1.63-.64.26-1.68-.09-2.31-.28-.88-.27-1.71-.7-2.43-1.28-.53-.43-1.25-.51-1.77,0-.44.43-.53,1.35,0,1.77h0Z"/>
      <g>
        <path class="cls-1" d="M373.6,94.9c.05-1.09,1.93-1.65,5.7-2.78.71-.21,1.61-.46,2.27,0,.46.33.67.9.83,1.45.21.73.37,1.47.36,2.23-.02.75-.23,1.52-.71,2.11-.2.24-.54.38-.54.38s-.37.21-.82.32c-.49.12-2.44.22-4.9-1.47-1.45-1-2.21-1.52-2.18-2.23Z"/>
        <path d="M374.85,94.9c0-.13-.09.36.02.04-.06.17-.13.25,0,.07-.26.37-.02.08.04,0,.12-.16-.13.18-.1.07,0-.03.15-.11.18-.12.21-.14.44-.24.67-.35.2-.1.01,0-.03,0,.08-.03.16-.07.24-.1.2-.08.39-.15.59-.22.85-.3,1.72-.56,2.59-.82.44-.13.88-.28,1.32-.37.23-.04-.26-.01.16-.02.09,0,.19,0,.28,0-.17-.02.05.02.07.03-.12-.09-.05-.05.01.03-.12-.16.22.4.14.22.07.16.12.34.16.5.15.5.28,1.02.31,1.55.02.47.01.76-.15,1.2,0,0-.17.35-.18.37-.02.03-.18.15-.04.05-.07.05-.15.08-.23.12-.06.03-.12.06-.17.09-.17.08.32-.09-.08.03-.09.03-.19.06-.28.09-.06.02-.29.05-.03.01.28-.04-.11,0-.18,0-.24,0-.48-.01-.73-.04.29.03-.06-.02-.17-.04-.21-.04-.42-.1-.62-.16-.96-.29-1.82-.84-2.71-1.46-.22-.15-.44-.31-.65-.47.12.1-.22-.2-.28-.25-.05-.05-.09-.1-.14-.14-.2-.19.1.18-.01-.02-.13-.23.07.22.02.06-.1-.29,0,.25,0,.01.01-1.61-2.49-1.61-2.5,0,0,1.13.82,1.87,1.65,2.5,1.02.77,2.09,1.46,3.28,1.94.86.34,1.79.56,2.72.57.76,0,1.44-.21,2.11-.55,1.18-.58,1.71-1.87,1.85-3.12s-.17-2.75-.71-3.94c-.64-1.41-2.03-1.88-3.49-1.6-1.14.21-2.27.64-3.37,1-1.61.53-3.9,1.18-4.05,3.2-.05.67.61,1.25,1.25,1.25.72,0,1.2-.57,1.25-1.25Z"/>
      </g>
      <path d="M358.96,86.66c3.33-.25,4.83,2.38,5.9,5.11.56,1.41,1.18,2.73,1.94,4.03.38.66.64,1.32.8,2.06.07.34.14.68.17,1.03.05.57-.04.71-.51,1.03-1.2.82-2.67,1.2-3.98,1.8-1.48.68-2.89,1.51-4.33,2.27-.71.38-1.04.54-1.52-.22-.4-.64-.72-1.37-.95-2.09-.54-1.66-.36-3.37-.19-5.07.19-1.83.25-3.74.74-5.53s1.43-3.29,2.4-4.79c.88-1.35-1.28-2.61-2.16-1.26-1.06,1.63-2.06,3.34-2.61,5.22-.61,2.1-.68,4.38-.9,6.55s-.26,4.22.55,6.24c.64,1.62,1.6,3.74,3.62,3.84.89.04,1.67-.42,2.43-.82.96-.51,1.9-1.05,2.87-1.55,1.71-.89,3.67-1.38,5.28-2.44.68-.45,1.48-1.05,1.71-1.88.26-.91-.03-2.1-.23-3-.43-1.94-1.67-3.47-2.42-5.28-.8-1.95-1.47-3.98-2.93-5.56s-3.59-2.36-5.71-2.21c-1.59.12-1.61,2.62,0,2.5h0Z"/>
      <g>
        <path class="cls-1" d="M365.78,93.02c-.6-.22-2.3-.27-2.93-.38-.39-.07-.78-.11-1.17-.02-.69.16-1.22.76-1.47,1.43s-.25,1.4-.19,2.11c.15,1.89.7,3.75,1.61,5.42.16.3.35.61.64.78.29.17.64.2.97.22.86.05.77.47,1.41-.11.38-.34,2.32-.69,2.63-1.09.43-.54,1.41-1.06,1.78-1.63.46-.71-.57-2.02-.76-2.84s-.56-1.59-.8-2.4c-.07-.23-.13-.47-.31-.64-.12-.11-.27-.18-.43-.24-.34-.14-.67-.48-1.01-.62"/>
        <path d="M366.12,91.81c-.48-.16-1.01-.2-1.52-.25-.26-.03-.53-.05-.79-.07-.12-.01-.25-.02-.37-.03-.07,0-.55-.07-.17-.01-.69-.1-1.36-.2-2.04,0-.77.23-1.39.79-1.82,1.45-.85,1.31-.69,3-.47,4.46s.68,2.87,1.31,4.2c.32.66.67,1.36,1.3,1.78s1.38.37,1.88.51c.55.16,1.06.22,1.59-.09.16-.09.3-.21.44-.33.27-.22,0,0-.05.03.06-.05.3-.13,0-.01.13-.05.26-.1.39-.14.94-.31,1.85-.52,2.56-1.25.86-.88,2.1-1.38,2.11-2.8,0-.71-.35-1.39-.64-2.02-.06-.12-.11-.23-.17-.35-.06-.14-.07-.15-.02-.03-.03-.07-.05-.14-.07-.21-.1-.32-.17-.64-.28-.96-.14-.4-.3-.79-.43-1.19s-.23-.81-.45-1.17c-.27-.44-.71-.65-1.09-.85-.31-.17-.57-.41-.88-.56-.61-.29-1.35-.17-1.71.45-.32.54-.17,1.42.45,1.71.23.11.42.26.63.4.12.08.66.31.68.36,0,0-.18-.15-.18-.15,0,0,.11.36.12.4.1.31.22.62.34.94.17.46.28.94.44,1.4s.41.93.61,1.38c0,.01.08.18.13.35l.03.11c.03.15.03.15,0,0-.03.11-.07.13,0-.04.16-.36-.04-.04-.19.09-.18.16-.37.3-.56.45s-.37.29-.54.45c-.06.06-.12.12-.18.18-.16.19-.13.08.04.01-.1.04-.33.16-.1.07-.21.08-.42.15-.64.22-.33.1-.65.2-.97.32-.21.08-.43.15-.62.26-.04.02-.08.04-.11.07-.1.08-.2.15-.3.23-.12.11-.15.13-.08.07.23-.05.34-.35.67-.1-.03-.02-.1-.03-.13-.04-.16-.07-.34-.1-.51-.13-.2-.03-.63,0-.82-.1.1.05-.08-.13-.13-.21-.57-.97-.96-2.05-1.22-3.14-.23-.97-.47-2.13-.27-3.12.09-.41.28-.78.56-.92.08-.04.27-.07.49-.06.24.02.47.06.71.09.44.05.89.08,1.33.12.11.01.22.02.33.03.01,0,.42.06.16.02.19.03.38.07.56.13.64.21,1.37-.25,1.54-.87.19-.68-.23-1.33-.87-1.54h0Z"/>
      </g>
      <path d="M388.86,89.55c.16.17.16.14,0-.07-.08-.15-.15-.3-.22-.45-.17-.35-.34-.71-.5-1.07-.32-.71-.62-1.42-.92-2.13-.59-1.45-1.17-2.9-1.71-4.36-.27-.73-.52-1.46-.7-2.21-.15-.59-.37-1.33-.26-1.95.19-.97,1.89-1.07,2.68-1.12,2.52-.18,5.54.63,7.39,2.43.95.93,1.52,2.45,1.98,3.67.25.66.46,1.34.54,2.05.06.52.22,1.38.02,1.86l.32-.55c-.47.5-1.44.78-2.06,1.02-.79.3-1.6.56-2.41.83-1.62.54-3.24,1.13-4.68,2.07-1.34.87-.09,3.04,1.26,2.16,1.45-.94,3.06-1.47,4.68-2.01,1.54-.51,3.41-1,4.7-2.04.73-.59.75-1.36.72-2.22-.03-1.03-.13-2.06-.42-3.04-.5-1.66-1.28-3.52-2.33-4.91s-2.81-2.34-4.46-2.98-3.4-.94-5.13-.84c-1.58.09-3.67.4-4.67,1.77-1.06,1.45-.6,3.44-.14,5.03.62,2.14,1.53,4.23,2.38,6.29.42,1.01.84,2.01,1.3,2.99s.86,1.89,1.96,2.2c1.55.44,2.21-1.97.66-2.41h0Z"/>
      <g>
        <path class="cls-1" d="M391.2,80.54c.35.26,1.89,1.59,2.13,1.95.43.63.87,1.27,1.17,1.98.35.82.49,1.83-.03,2.55-.18.25-.42.44-.67.61-.37.25-.76.46-1.18.61-.42.15-.86.23-1.3.31-.82.15-1.65.3-2.47.46-.17.03-.34.06-.51.03-.15-.03-.3-.1-.43-.19-.97-.61-1.12-1.83-1.66-2.84-.17-.31-.44-.62-.52-.96-.11-.48-.37-1.96-.37-2.46"/>
        <path d="M390.57,81.62c-.14-.11-.22-.18-.06-.04.07.06.14.12.22.18.21.17.41.35.61.53.35.31.67.66,1.02.97.03.03.12.14-.03-.05-.19-.23.03.05.07.11.11.16.22.32.32.48.24.37.47.74.65,1.14.01.03.08.23.11.32.02.07.04.14.06.21,0,0,.05.24.03.09.02.1.02.39.02.39,0-.11-.02.11-.02.11-.04.28.02.01-.05.15-.21.4-.98.76-1.46.9-.83.25-1.71.35-2.56.51-.21.04-.41.08-.62.11-.05,0-.54.08-.27.09.24,0-.1-.08-.03-.03.08.06-.07-.06-.07-.06-.06-.06-.12-.12-.17-.18.08.1,0,.01-.02-.05-.09-.15-.16-.29-.24-.44,0,0-.09-.19-.04-.09.05.12-.05-.13-.06-.15-.15-.37-.29-.73-.45-1.09s-.42-.66-.57-1.01c-.07-.16,0-.03,0-.02-.01-.06-.03-.12-.04-.17-.02-.14-.06-.28-.08-.42-.06-.31-.1-.61-.16-.92-.04-.25,0-.06,0,0-.01-.08-.02-.17-.03-.25-.01-.12-.02-.24-.02-.35-.01-.68-.57-1.25-1.25-1.25s-1.26.57-1.25,1.25.16,1.4.28,2.09c.05.28.09.56.18.83.15.46.45.82.67,1.25.13.25.23.53.38.92.17.41.34.83.59,1.2.29.42.64.79,1.08,1.06.61.38,1.21.4,1.9.28,2.02-.34,4.29-.54,5.87-1.98,1.74-1.58.9-4.02-.18-5.69-.8-1.23-1.87-2.2-3.04-3.08-.54-.41-1.4-.09-1.71.45-.37.64-.09,1.3.45,1.71h0Z"/>
      </g>
      <g>
        <path class="cls-1" d="M386.1,83.06c.06-1.13.73-2.3,1.82-2.61.37-.11.76-.11,1.14-.12,1.01-.01,2.12,0,2.88.67"/>
        <path d="M387.35,83.06s.03-.29,0-.08.01-.06.02-.08c.03-.12.06-.25.1-.36.01-.04.04-.18.07-.2-.06.04-.11.24,0,.03.06-.11.12-.22.19-.32.14-.23-.13.13-.02.02.05-.05.09-.1.14-.15s.1-.09.15-.14c.1-.1-.25.16-.03.02.05-.03.09-.06.14-.08.02-.01.26-.12.07-.04s.04,0,.08-.02c.08-.02.17-.04.25-.06.17-.04-.2,0-.02,0,.09,0,.18-.01.26-.01.16,0,.33,0,.49,0,.29,0,.58,0,.86.02.06,0,.17.03.23.02-.07.01-.24-.04-.07,0,.15.03.29.06.43.1.07.02.14.05.21.07.15.05-.26-.14-.02,0,.05.03.1.06.15.09.06.04.27.22.03.01.5.42,1.28.53,1.77,0,.43-.46.54-1.32,0-1.77-.76-.64-1.61-.91-2.59-1.01-.81-.08-1.71-.08-2.5.09-1.77.39-2.78,2.16-2.89,3.86-.04.65.6,1.28,1.25,1.25.71-.03,1.21-.55,1.25-1.25h0Z"/>
      </g>
      <path d="M325.27,29.67c.68-.75,1.38-1.49,2.1-2.22.23-.23.37-.56.37-.88s-.14-.67-.37-.88-.55-.38-.88-.37-.65.13-.88.37c-.71.72-1.41,1.46-2.1,2.22-.22.25-.37.55-.37.88,0,.31.14.67.37.88s.55.38.88.37.66-.12.88-.37h0Z"/>
      <path d="M346.66,20.49c.35-.21.7-.39,1.08-.55l-.3.13c.66-.27,1.36-.46,2.07-.56l-.33.04c.22-.03.44-.05.67-.06.65-.03,1.28-.55,1.25-1.25-.03-.65-.55-1.29-1.25-1.25-1.57.08-3.1.53-4.44,1.34-.56.34-.82,1.14-.45,1.71s1.11.81,1.71.45h0Z"/>
      <path d="M341.39,40.48c2.7-2.5,6.66-2.82,10.07-3.64l-1.58-1.21c.1,1.36-.7,2.68-1.28,3.86-.64,1.31-1.26,2.74-2.1,3.94l.45-.45-.08.05.96-.13c-.21-.07-.45-.28-.64-.39-.27-.16-.54-.32-.81-.48-.54-.32-1.07-.64-1.61-.95-1.07-.64-2.15-1.27-3.22-1.91-1.39-.82-2.65,1.34-1.26,2.16s2.75,1.62,4.12,2.44c.72.42,1.42.87,2.15,1.27.98.55,1.77.26,2.31-.69.77-1.36,1.49-2.74,2.15-4.15s1.48-2.95,1.36-4.57c-.06-.82-.75-1.41-1.58-1.21-3.92.94-8.09,1.43-11.17,4.28-1.18,1.09.59,2.86,1.77,1.77h0Z"/>
      <path d="M346.74,45.49c.07.13.08.15.04.04.03.08.05.16.08.24.03.12.06.25.08.38.06.29.1.59.2.87.26.77.79,1.37,1.52,1.73,1.35.65,2.93,1.19,4.45,1.24.8.03,1.7-.09,2.4-.5s1.07-1.09,1.4-1.76c.7-1.43,1.07-2.98,1.06-4.57,0-.68-.57-1.25-1.25-1.25s-1.25.57-1.25,1.25c0,1.06-.19,2.12-.62,3.1-.12.26-.25.52-.4.77-.06.11-.14.25-.22.35.08-.09.14-.08-.06,0-.36.14-.93.15-1.39.1-.5-.06-1.08-.23-1.59-.41s-1.06-.36-1.39-.54c0,0-.33-.2-.17-.1-.1-.1-.12-.12-.07-.07.04.06.03.03-.04-.08.05.17,0-.05-.03-.11-.03-.1-.05-.21-.07-.31-.12-.57-.21-1.12-.52-1.63-.35-.58-1.12-.79-1.71-.45s-.8,1.13-.45,1.71h0Z"/>
      <path d="M346.31,44.84c.05.3.1.6.14.9-.03-.2.03.27.04.32.01.13.03.26.04.39.05.6.07,1.21.03,1.81,0,.04-.05.52-.02.3-.02.13-.04.25-.07.37-.06.29-.15.57-.23.85-.06.14-.06.16-.01.05-.03.08-.07.15-.11.23-.05.11-.11.22-.18.32-.04.07-.08.13-.12.19.08-.11.07-.11-.03,0,.17-.12.14-.08-.04-.03-.06.02-.12.03-.18.04.14-.02.12-.01-.06,0-.17.01-.35.03-.52.03-.35.01-.7,0-1.04-.02-.57-.04-.99-.09-1.57-.26-.13-.04-.25-.08-.37-.13.24.1-.11-.06-.15-.09-.05-.03-.35-.25-.15-.08-.03-.03-.29-.28-.21-.19.05.07.04.05-.04-.06-.04-.07-.08-.14-.12-.21.1.19-.05-.16-.07-.21-.09-.3-.14-.6-.2-.9-.12-.64-.94-1.07-1.54-.87-.69.22-1,.85-.87,1.54.23,1.27.7,2.39,1.84,3.1,1.05.65,2.4.82,3.61.89.7.04,1.39,0,2.08-.11.76-.12,1.36-.54,1.8-1.16.71-1,.99-2.32,1.08-3.52.1-1.39-.11-2.78-.33-4.15-.1-.65-.94-1.07-1.54-.87-.7.23-.99.84-.87,1.54h0Z"/>
      <path d="M332.12,28.23c-1.34-.08-2.61.62-3.43,1.65s-1.21,2.31-1.47,3.59c-.14.69-.31,1.4-.25,2.11s.32,1.38.63,2.03c.58,1.19,1.27,2.31,2.5,2.9.52.25,1.08.43,1.63.59.68.2,1.44.46,2.16.48,1.29.04,2.58-.82,3.46-1.7.95-.95,1.6-2.17,1.99-3.45.37-1.21.61-2.62.37-3.88-.29-1.56-1.61-2.42-2.96-3.04-1.45-.67-2.95-1.06-4.53-1.21-.67-.07-1.25.62-1.25,1.25,0,.73.58,1.18,1.25,1.25.98.1,1.94.35,2.86.7.38.15.75.33,1.11.52.33.18.76.37.96.7.35.56.13,1.54,0,2.15-.18.92-.49,1.8-1.02,2.58-.43.63-1.03,1.19-1.73,1.51s-1.69-.16-2.38-.38c-.81-.25-1.34-.55-1.77-1.29s-.88-1.49-.77-2.35c.19-1.46.69-4.33,2.64-4.21.67.04,1.25-.6,1.25-1.25,0-.71-.57-1.21-1.25-1.25h0Z"/>
      <path d="M350.32,21.55c-2.44.75-4.8,2.24-5.34,4.91-.23,1.15-.33,2.62.06,3.74.46,1.31,2.13,1.74,3.32,2.09,2.42.72,5.33.89,7.46-.69.97-.71,1.74-1.67,2.1-2.83.4-1.3.13-2.66-.38-3.89-.31-.75-.61-1.6-1.24-2.15-.55-.48-1.28-.72-1.96-.95-1.46-.48-3.01-.7-4.54-.68-1.61.02-1.61,2.52,0,2.5,1,0,1.97.09,2.94.32.69.17,1.75.32,2.08.94.42.8.8,1.7.8,2.61,0,.61-.35,1.26-.84,1.74-1.19,1.17-3.04,1.26-4.64.93-.47-.1-.93-.22-1.38-.37s-.89-.38-1.34-.51c.02,0-.18-.07-.12-.06.2.05.04.26.08.07.02-.11-.04-.3-.05-.42-.04-.47-.05-.96,0-1.43.09-.81.4-1.56,1.02-2.12.73-.66,1.71-1.08,2.63-1.36,1.53-.47.88-2.88-.66-2.41h0Z"/>
      <path d="M348.1,27.48c.71.26,1.43.49,2.13.78l-.3-.13c.14.06.29.13.43.2.06.03.12.06.17.1.04.02.28.2.09.05s.04.04.08.07c.04.04.08.1.13.14-.13-.18-.16-.21-.09-.11l.03.05c.04.07.08.14.11.21l-.13-.3c.06.15.1.3.13.46l-.04-.33c.01.12.01.23,0,.34l.04-.33c-.02.09-.04.18-.08.27l.13-.3s-.03.07-.05.1c-.08.17.18-.18.08-.09-.04.03-.15.13.02,0s.02-.03-.03,0l.3-.13s-.08.02-.11.03l.33-.04s-.1,0-.15,0l.33.04c-.2-.03-.39-.11-.57-.18l.3.13c-.3-.13-.6-.27-.89-.42-.14-.07-.28-.15-.42-.24-.03-.02-.06-.04-.09-.06-.11-.08-.08-.06.07.06-.04-.05-.11-.09-.15-.13-.35-.31-.69-.59-1.14-.74s-.95-.14-1.38.04c-1.18.5-1.38,2.01-.54,2.92.3.33.73.55,1.16.66.4.09.81.1,1.21.15l-.33-.04h.07c.34.06.65.07.96-.11.26-.15.51-.45.57-.75.07-.32.06-.68-.13-.96-.16-.25-.43-.53-.75-.57-.36-.05-.72-.08-1.09-.12l.33.04c-.16-.02-.3-.06-.45-.12l.3.13c-.12-.06-.27-.22-.02.03-.09-.09-.07-.05.07.12-.02-.03-.04-.07-.06-.1l.13.3c-.02-.06-.04-.11-.05-.17l.04.33c0-.06,0-.12,0-.18l-.04.33c.01-.06.02-.11.05-.17l-.13.3c.06-.11.03-.07-.09.11-.18.13-.22.16-.11.11l-.3.13c.06-.02.11-.03.16-.04l-.33.04c.06,0,.12,0,.18,0l-.33-.04c.08.01.15.03.23.06l-.3-.13c.07.03.13.07.2.11.24.16-.17-.15-.01-.01.2.18.4.35.62.51.29.22.61.38.93.54.4.19.81.4,1.24.53.68.21,1.38.05,1.9-.43.68-.63.86-1.71.53-2.56s-.96-1.48-1.78-1.87-1.76-.68-2.64-1c-.62-.22-1.4.25-1.54.87-.16.7.21,1.3.87,1.54h0Z"/>
      <path d="M333.26,31.77c-.36.94-.51,1.95-.58,2.96-.08,1.07-.13,2.17.35,3.16.52,1.07,1.88,1.87,3.01,1.2s.9-2.09.93-3.17c.02-.53.04-1.07.1-1.6,0-.02.03-.2,0-.05s.01-.08.02-.11c.02-.13.04-.25.07-.38.03-.14.07-.27.1-.41,0-.04.07-.17,0-.02-.04.08-.04.09,0,.03.05-.08.03-.05-.05.08.3-.29.47-.81.32-1.22-.19-.54-.49-.84-1.03-1.03-.77-.26-1.59.43-1.58,1.21,0,.62.09,1.26.25,1.86.07.25.13.49.2.74.03.14.03.13,0-.04,0,.06,0,.13,0,.19,0,.14,0,.13.01-.05-.04.13-.03.12.02-.03-.3.58-.17,1.38.45,1.71.57.3,1.39.17,1.71-.45.39-.77.35-1.54.12-2.35-.08-.28-.16-.57-.22-.86-.01-.07-.03-.14-.04-.21,0,.11.02.15,0,.02-.01-.18-.02-.35-.03-.53l-1.58,1.21.08.03-.55-.32.06.06-.32-.55.03.08.32-1.22c-.45.44-.61,1.05-.73,1.65s-.17,1.17-.21,1.75c-.03.52-.04,1.03-.05,1.55,0,.25-.02.5-.03.75-.01.14,0,.11.01-.08-.04.13-.03.11.04-.07.17-.27.4-.4.68-.4.18.04.23.04.13.02-.09-.03-.06,0,.1.05-.11-.07-.1-.05.04.05-.07-.02-.22-.29-.14-.14.09.18-.09-.17-.09-.18.06.16.07.18.03.05-.01-.04-.03-.09-.04-.13-.02-.06-.06-.43-.04-.16,0-.13-.02-.26-.02-.39,0-.26.01-.52.02-.78s.03-.5.05-.75c.01-.12.01-.25.04-.38-.06.3.01-.09.02-.15.09-.51.22-1.01.4-1.5.24-.61-.26-1.4-.87-1.54-.72-.16-1.28.22-1.54.87h0Z"/>
    </g>
  </g>
  <g id="Mac_Face" data-name="Mac Face">
    <g>
      <path class="cls-4" d="M329.26,169.74c.95.38,1.47,1.39,1.88,2.33,1.6,3.66,2.86,7.47,3.75,11.37.33,1.44.81,3.14,2.21,3.62.46.16.95.15,1.44.15,1.5-.02,3-.03,4.5-.05-1.13,2.2-2.52,4.27-4.14,6.14-.47.55-.98,1.12-1.14,1.83-.12.54,0,1.1.1,1.64.47,2.36.94,4.72,1.41,7.08.16.79.32,1.6.69,2.32.27.53.66,1.05.62,1.64-.05.81-.85,1.33-1.56,1.71-4.95,2.62-10.21,4.66-15.63,6.05.17-2.1-1.69-3.71-2.92-5.41-.78-1.08-1.34-2.29-1.87-3.51-4.23-9.6-7.25-19.71-11.67-29.22,6.99-2.53,14.05-4.89,21.16-7.07"/>
      <path d="M328,171.9c.66.33.89,1.21,1.16,1.86.45,1.07.87,2.17,1.26,3.27.84,2.37,1.5,4.79,2.09,7.24.48,1.97,1.3,3.91,3.18,4.9,1.09.57,2.32.56,3.52.54,1.28-.01,2.55-.03,3.83-.04l-2.16-3.76c-.81,1.55-1.72,3.04-2.77,4.44-.96,1.26-2.26,2.38-2.7,3.95-.5,1.78.17,3.75.52,5.5s.67,3.69,1.11,5.51c.18.75.44,1.83.94,2.44l.17.32c-.15-.41-.1-.74.15-.98.16-.17.09-.14-.23.1-.17.1-.34.19-.51.28-1.53.82-3.11,1.57-4.71,2.26-3.27,1.42-6.68,2.54-10.13,3.43l3.16,2.41c.1-3.54-2.91-5.66-4.39-8.57-1.61-3.19-2.84-6.6-4.11-9.93-2.67-7.01-5.16-14.08-8.3-20.9l-1.49,3.67c6.99-2.53,14.05-4.89,21.16-7.07,3.07-.94,1.76-5.77-1.33-4.82-7.11,2.18-14.16,4.54-21.16,7.07-1.62.59-2.21,2.13-1.49,3.67,2.96,6.42,5.29,13.1,7.8,19.7,1.27,3.34,2.58,6.67,4.05,9.92.69,1.53,1.5,2.89,2.54,4.21.7.88,1.76,1.85,1.73,3.04-.05,1.65,1.63,2.81,3.16,2.41,3.73-.97,7.36-2.24,10.9-3.76,1.74-.75,3.45-1.55,5.12-2.44s3.1-2.28,2.98-4.32c-.06-.98-.57-1.69-.94-2.56-.29-.68-.39-1.47-.53-2.19-.41-2.05-.82-4.09-1.22-6.14-.07-.33-.21-.71-.15-1.04-.06.39.06-.01.21-.19.59-.7,1.17-1.41,1.73-2.14,1.15-1.51,2.16-3.11,3.04-4.79s-.19-3.78-2.16-3.76c-1.2.01-2.4.03-3.6.04-.51,0-1.12.1-1.63,0,.58.12.12.18.07-.08-.11-.49-.43-1.24-.57-1.84-.27-1.12-.54-2.24-.86-3.35-.63-2.22-1.39-4.4-2.26-6.53-.81-2-1.58-4.28-3.65-5.31-2.87-1.43-5.41,2.88-2.52,4.32h0Z"/>
    </g>
    <path d="M316.81,183.95c3.22,0,3.22-5,0-5s-3.22,5,0,5h0Z"/>
    <path d="M350.54,177.7c3.22,0,3.22-5,0-5s-3.22,5,0,5h0Z"/>
    <path d="M320.24,197.2c1.3.49,2.04,2.22,2.69,3.32.99,1.66,2.15,3.35,3.87,4.34,2.25,1.28,4.31-.46,6.16-1.68.87-.57,1.72-1.17,2.56-1.79.47-.35.93-.7,1.4-1.06.22-.17,1.59-.97.7-.68h-1.33c1.08.35,2.14,1.06,3.19,1.52,1.2.52,2.43,1.08,3.68,1.47,2.58.79,4.46-.74,6-2.67,1.42-1.77,2.43-3.76,3.43-5.79,1.16-2.35,2.32-4.7,3.48-7.06.6-1.21.33-2.71-.9-3.42-1.1-.65-2.82-.32-3.42.9-1.41,2.86-2.79,5.73-4.24,8.58-.6,1.18-1.23,2.4-2.04,3.45-.36.46-.82.82-1.19,1.27l-.3.26c.9-.07,1.13-.17.68-.28-.19-.17-.84-.3-1.06-.38-1.42-.54-2.81-1.16-4.17-1.85-1.53-.78-2.91-1.3-4.4-.15-1.15.89-2.28,1.8-3.48,2.63-1.11.77-2.4,1.88-3.64,2.37h1.33c-.57-.17-1.09-1.06-1.4-1.53-.51-.78-.94-1.61-1.45-2.39-1.22-1.91-2.68-3.37-4.82-4.18-1.26-.48-2.74.53-3.08,1.75-.39,1.4.48,2.6,1.75,3.08h0Z"/>
  </g>
</svg>