<?xml version="1.0" encoding="UTF-8"?>
<svg xmlns="http://www.w3.org/2000/svg" viewBox="0 0 512 512">
  <defs>
    <style>
      .cls-1 {
        fill: #a6ce38;
      }

      .cls-2 {
        fill: #f5821f;
      }

      .cls-3 {
        fill: #0282c6;
      }

      .cls-4 {
        fill: #666;
      }

      .cls-5 {
        fill: #ed1c24;
      }

      .cls-6 {
        fill: #fff;
        stroke: #fff;
        stroke-miterlimit: 10;
        stroke-width: 2.5px;
      }
    </style>
  </defs>
  <g id="Vector">
    <g id="New_GREAT" data-name="New GREAT">
      <path class="cls-2" d="M100.56,226.52c-8.94-8.35-19.14-16.31-32.02-16.12-6.39.1-12.47,2.06-18.3,4.5-5.84,2.44-11.75,4.92-16.55,9.15-8.8,7.76-11.65,20.71-13.7,31.76-2.4,12.91-2.88,26.32,1.19,38.96,3.78,11.74,9.84,23.23,19.79,30.81,9.28,7.07,21.24,11.6,32.84,12.72,23.42,2.24,45.78-13.83,51.44-36.61,3.08-12.41,1.72-28.53-10.35-35.83-6.75-4.08-14.11-3.38-21.54-2.11s-15.06,2.71-22.59,4.07c-9.93,1.79-7.72,18.36,2.39,17.68,15.58-1.05,31.07-3.21,46.33-6.5l-10.16-13.22c-.73,1.37-1.46,2.74-2.18,4.11-5.43,10.22,10.1,19.33,15.54,9.08.73-1.37,1.46-2.74,2.18-4.11,3.79-7.12-2.43-14.89-10.16-13.22-13.72,2.96-27.54,4.92-41.54,5.86l2.39,17.68c4.71-.85,9.41-1.69,14.12-2.54,4.14-.75,8.79-2.25,13.03-2.04,7.18.36,6.52,10.43,5.36,15.54-3.43,15.07-17.08,25.4-32.57,24.31-7.62-.54-15.52-3.78-21.91-7.88-6.84-4.39-10.95-11.72-13.84-19.13-3.43-8.76-4.21-17.78-3.26-27.1.8-7.83,2.46-16.75,5.78-23.94,3.66-7.92,14.39-11.63,22.37-13.47,9.55-2.21,16.69,4.24,23.19,10.32,8.46,7.9,21.21-4.8,12.73-12.73h0Z"/>
      <path class="cls-2" d="M140.38,230.33c-2.12,31.27-4.23,62.53-6.35,93.8-.68,9.99,15.95,12.45,17.68,2.39,3.36-19.55,2.9-39.91,8.94-58.95,2.33-7.36,5.93-16.08,12.28-20.93,6.81-5.2,15.66-1.6,22.86.84,10.99,3.74,15.71-13.64,4.79-17.36s-22.86-6.42-33.76-.81c-9.15,4.71-15.42,13.98-19.52,23.14-9.86,21.97-8.93,45.99-12.93,69.28l17.68,2.39c2.12-31.27,4.23-62.53,6.35-93.8.78-11.56-17.22-11.51-18,0h0Z"/>
      <path class="cls-2" d="M263.82,312.56c-7.78,1.73-16.79,4.09-24.52.79-6.69-2.86-9.17-10.81-11.16-17.19-2.68-8.61-3.98-17.43-3.98-26.44,0-6.57-.05-15.08,3.96-20.68,3.55-4.96,12.46-8.85,18.44-9.48,4.52-.47,14.66,2.26,14.99,7.99.31,5.43-9.05,12.14-13.57,13.47-3.44,1.01-7.54.76-11.1.9-2.45.09-4.9.15-7.36.17-1.23,0-2.45,0-3.68,0,.51.24,1.01.49,1.51.76l2.31,3.97-.27-.96c-3.14-11.13-20.51-6.4-17.36,4.79s15.8,9.61,24.84,9.27c5-.19,10.23-.26,15.13-1.37,5.32-1.2,9.73-4.42,13.96-7.71,7.99-6.22,14.52-15.04,13.37-25.68-1.1-10.19-9.18-17.2-18.21-20.84-10.56-4.27-20.5-2.76-30.67,1.76-8.75,3.89-16.15,9.23-20.08,18.23-7.82,17.91-4.83,42.21,1.56,60.09,3.76,10.54,9.06,20.38,19.73,25.13,11.91,5.3,24.66,3.11,36.93.38,11.3-2.51,6.52-19.87-4.79-17.36h0Z"/>
      <path class="cls-2" d="M340.82,257.42c-16.97-1.36-37.61-.26-46.76,16.79-8.08,15.06-1.64,35.69,10.48,46.66,6.4,5.79,14.53,9.58,23.29,8.6,8.03-.9,17.06-5.74,22.34-11.96,11.18-13.15,7.92-37.4-.39-51.16-6-9.93-21.08-1.11-15.54,9.08,6.75,12.42,6.21,28.45,18.37,37.7,12.49,9.5,29.62,5.31,37.79-7.56,6.23-9.81-9.34-18.85-15.54-9.08-4.49,7.07-12.1,3.45-15.06-2.74-4.22-8.82-5.29-18.71-10.01-27.41l-15.54,9.08c2.72,4.5,4.04,9.47,4.47,14.7.37,4.51,1.07,10.49-1.4,14.58-1.96,3.25-7.06,6.14-10.7,6.84-4.56.88-8.69-2.42-11.56-5.61-5.09-5.64-9.55-17.28-4.55-24.27,6.45-9.02,20.94-7.01,30.32-6.26,4.85.39,9-4.41,9-9,0-5.19-4.13-8.61-9-9h0Z"/>
      <g>
        <path class="cls-2" d="M429.65,205.73c-6.47,6.92-9.49,15.68-11.87,24.69-2.64,10-4.32,20.27-5.19,30.57-1.73,20.43.37,41.17,5.77,60.93,3.05,11.16,20.42,6.42,17.36-4.79-4.68-17.14-6.51-34.73-5.4-52.46.53-8.43,1.78-16.76,3.7-24.98,1.65-7.06,3.22-15.74,8.36-21.23,7.91-8.45-4.79-21.21-12.73-12.73h0Z"/>
        <path class="cls-2" d="M389.47,255.86c10.18-9.02,24.65-10.99,37.68-12.31,7.92-.8,15.88-1.49,23.71-2.93s15.53-4.32,23.03-7.66c4.44-1.98,5.49-8.45,3.23-12.31-2.68-4.57-7.86-5.21-12.31-3.23-28.59,12.73-63.13,3.63-88.07,25.71-8.69,7.7,4.08,20.39,12.73,12.73h0Z"/>
      </g>
    </g>
    <g id="Redone_Rails" data-name="Redone Rails">
      <g id="Green_Rail" data-name="Green Rail">
        <g>
          <rect id="Green_Square" data-name="Green Square" class="cls-1" x="256.87" y="109.72" width="76.93" height="76.93" rx="16" ry="16" transform="translate(-34.17 123.46) rotate(-22.35)"/>
          <rect id="Rail_1" class="cls-6" x="272.97" y="123.72" width="7.07" height="66.07" rx="3.54" ry="3.54" transform="translate(590.48 206.2) rotate(159.4)"/>
          <rect id="Rail_2" class="cls-6" x="310.95" y="106.96" width="7.07" height="66.07" rx="3.54" ry="3.54" transform="translate(658.12 160.4) rotate(159.4)"/>
          <rect id="Rail_3" class="cls-6" x="292.39" y="114.88" width="6.15" height="66.07" rx="3.07" ry="3.07" transform="translate(260.95 476.53) rotate(-110.6)"/>
          <rect id="Rail_4" class="cls-6" x="283.66" y="91.61" width="6.11" height="66.07" rx="3.05" ry="3.05" transform="translate(270.91 436.88) rotate(-110.6)"/>
          <rect id="Rail_5" class="cls-6" x="300.96" y="137.51" width="6.01" height="66.07" rx="3.01" ry="3.01" transform="translate(251.27 515.07) rotate(-110.6)"/>
        </g>
      </g>
      <g id="Red_Rail" data-name="Red Rail">
        <rect id="Green_Square-2" data-name="Green Square" class="cls-5" x="401.14" y="94.57" width="76.93" height="76.93" rx="16" ry="16" transform="translate(-17.56 177.18) rotate(-22.35)"/>
        <rect id="Rail_1-2" data-name="Rail_1" class="cls-6" x="417.23" y="108.56" width="7.07" height="66.07" rx="3.54" ry="3.54" transform="translate(864.45 126.1) rotate(159.4)"/>
        <rect id="Rail_2-2" data-name="Rail_2" class="cls-6" x="455.21" y="91.81" width="7.07" height="66.07" rx="3.54" ry="3.54" transform="translate(932.08 80.3) rotate(159.4)"/>
        <rect id="Rail_3-2" data-name="Rail_3" class="cls-6" x="436.65" y="99.73" width="6.15" height="66.07" rx="3.07" ry="3.07" transform="translate(470.16 591.08) rotate(-110.6)"/>
        <rect id="Rail_4-2" data-name="Rail_4" class="cls-6" x="427.92" y="76.45" width="6.11" height="66.07" rx="3.05" ry="3.05" transform="translate(480.12 551.43) rotate(-110.6)"/>
        <rect id="Rail_5-2" data-name="Rail_5" class="cls-6" x="445.22" y="122.35" width="6.01" height="66.07" rx="3.01" ry="3.01" transform="translate(460.48 629.62) rotate(-110.6)"/>
      </g>
      <g id="Blue_Rail" data-name="Blue Rail">
        <rect id="Green_Square-3" data-name="Green Square" class="cls-3" x="331.74" y="143.13" width="76.93" height="76.93" rx="16" ry="16" transform="translate(98.47 -128.55) rotate(22.65)"/>
        <rect id="Rail_1-3" data-name="Rail_1" class="cls-6" x="347.3" y="141.3" width="7.07" height="66.07" rx="3.54" ry="3.54" transform="translate(598.31 478.03) rotate(-155.6)"/>
        <rect id="Rail_2-3" data-name="Rail_2" class="cls-6" x="386" y="156.31" width="7.07" height="66.07" rx="3.54" ry="3.54" transform="translate(666.06 522.7) rotate(-155.6)"/>
        <rect id="Rail_3-3" data-name="Rail_3" class="cls-6" x="367.41" y="148.46" width="6.15" height="66.07" rx="3.07" ry="3.07" transform="translate(52.15 443.91) rotate(-65.6)"/>
        <rect id="Rail_4-3" data-name="Rail_4" class="cls-6" x="377.7" y="125.82" width="6.11" height="66.07" rx="3.05" ry="3.05" transform="translate(78.8 439.97) rotate(-65.6)"/>
        <rect id="Rail_5-3" data-name="Rail_5" class="cls-6" x="357.49" y="170.47" width="6.01" height="66.07" rx="3.01" ry="3.01" transform="translate(26.25 447.73) rotate(-65.6)"/>
      </g>
    </g>
  </g>
  <g id="Text">
    <g id="GREAT_Transit" data-name="GREAT Transit">
      <g>
        <path class="cls-4" d="M152.88,355.45c1.62,20.65,3.25,41.3,4.87,61.95.6,7.65,12.61,7.71,12,0-1.62-20.65-3.25-41.3-4.87-61.95-.6-7.65-12.61-7.71-12,0h0Z"/>
        <path class="cls-4" d="M131.2,363.96c4.76-2.42,10.7-.44,15.77-.47,5.52-.04,10.69-1.7,15.85-3.51,10.72-3.77,21.45-7.74,31.05-13.92,6.47-4.17.46-14.56-6.06-10.36-9.7,6.25-20.57,10.23-31.47,13.85-5.67,1.89-10.43,1.88-16.32,1.48-5.29-.36-10.11.15-14.88,2.58-6.88,3.5-.82,13.86,6.06,10.36h0Z"/>
        <path class="cls-4" d="M171.4,374.16c3.26,12.35,6.53,24.71,9.79,37.06,2,7.58,12.89,4.29,11.57-3.19-.84-4.78-1.39-27.03,7.93-23.62,7.26,2.66,10.4-8.94,3.19-11.57-8.59-3.14-16.78,2.57-20.22,10.32-3.91,8.78-4.11,18.74-2.47,28.06l11.57-3.19c-3.26-12.35-6.53-24.71-9.79-37.06-1.97-7.46-13.55-4.3-11.57,3.19h0Z"/>
        <path class="cls-4" d="M221.21,377.01c-17.05,3.67-19.63,28.43-3.83,35.81,7.28,3.39,16.13-.04,19.43-7.27,3.89-8.52-1.43-16.39-2.98-24.66l-10.97,4.62c4.62,7.63,7.62,16.23,13.72,22.9,4.92,5.39,12.86,9.94,18.26,2.65,4.6-6.21-5.81-12.21-10.36-6.06l-.5.68,3.59-2.76c1.22-.45.96.45-.26-.81-.92-.95-1.9-1.78-2.75-2.79-1.53-1.83-2.78-3.89-3.94-5.97-2.57-4.59-4.66-9.41-7.39-13.91-3.66-6.04-12.19-1.91-10.97,4.62.5,2.66,7.86,19.07.78,18.1-2.93-.4-4.56-5.05-4.41-7.45.21-3.42,2.6-5.46,5.78-6.14,7.55-1.62,4.35-13.19-3.19-11.57h0Z"/>
        <path class="cls-4" d="M249.65,378.89c2.56,9.92,4.55,19.95,5.99,30.09.95,6.74,11.97,5.06,11.79-1.6-.1-3.68-.04-7.38.48-11.03.15-1.09.58-5.89,1.88-6.24,3.75-1.03,4.73,16.7,4.85,18.52.51,7.66,12.52,7.72,12,0-.73-10.93-2-30.6-17.15-30.51-13.93.08-14.33,19.48-14.06,29.27l11.79-1.6c-1.44-10.14-3.43-20.17-5.99-30.09-1.93-7.47-13.5-4.31-11.57,3.19h0Z"/>
        <path class="cls-4" d="M309.61,362.85c-5.4,2.23-11.08,4.63-14.52,9.63s-4.03,11.33-.95,16.41c3.38,5.58,9.28,5.72,15.03,6.49,3.6.48,2.17,2.96-.06,4.93s-4.8,2.27-6.89.06c-5.31-5.63-13.78,2.86-8.49,8.49,10.64,11.29,30.36,1.52,29.7-13.47-.35-7.98-7.14-11.34-14.18-12-2.59-.24-6.07.35-4.75-3.24,1.12-3.05,5.56-4.59,8.29-5.71,7.04-2.91,3.95-14.52-3.19-11.57h0Z"/>
        <path class="cls-4" d="M333.77,381.21c-.27,9.14-.25,18.27.06,27.41.26,7.7,12.26,7.74,12,0-.31-9.14-.33-18.27-.06-27.41.23-7.72-11.77-7.72-12,0h0Z"/>
        <path class="cls-4" d="M339.79,367.99c7.72,0,7.73-12,0-12s-7.73,12,0,12h0Z"/>
        <path class="cls-4" d="M365.96,359.93c-1.35,15.38-1.73,30.8-1.14,46.23.29,7.7,12.29,7.74,12,0-.59-15.43-.21-30.85,1.14-46.23.67-7.69-11.33-7.65-12,0h0Z"/>
        <path class="cls-4" d="M358.56,376.13c10.09-1.65,20.18-3.31,30.26-4.96,7.6-1.25,4.38-12.81-3.19-11.57-10.09,1.65-20.18,3.31-30.26,4.96-7.6,1.25-4.38,12.81,3.19,11.57h0Z"/>
      </g>
    </g>
  </g>
</svg>