<svg width="235" height="141" viewBox="0 0 235 141" fill="none" xmlns="http://www.w3.org/2000/svg">
<path d="M81 88.5L39.5 105.6C31.3 109 22 105.1 18.6 96.9L1.49999 55.4C-1.90001 47.2 2.00001 37.9 10.2 34.5L51.7 17.4C59.9 14 69.2 17.9 72.6 26.1L89.7 67.6C93 75.8 89.1 85.1 81 88.5Z" fill="#A6CE38"/>
<path d="M224.8 73.3L183.3 90.4C175.1 93.8 165.8 89.9 162.4 81.7L145.3 40.2C141.9 32 145.8 22.7 154 19.3L195.5 2.20001C203.7 -1.19999 213 2.70001 216.4 10.9L233.5 52.4C236.9 60.6 233 70 224.8 73.3Z" fill="#ED1C24"/>
<path d="M125.9 139L84.4 121.7C76.2 118.3 72.4 108.9 75.8 100.8L93.1 59.3C96.5 51.1 105.9 47.3 114 50.7L155.5 68C163.7 71.4 167.5 80.8 164.1 88.9L146.8 130.4C143.4 138.6 134.1 142.4 125.9 139Z" fill="#0282C6"/>
<path d="M14.5 38.8C16.3 38.1 18.4 39 19.1 40.9L39.9 96.1C40.6 97.9 39.6999 100 37.7999 100.7C35.9999 101.4 33.9 100.5 33.2 98.6L12.4 43.4C11.8 41.5 12.7 39.5 14.5 38.8Z" fill="white" stroke="white" stroke-width="2.5" stroke-miterlimit="10"/>
<path d="M52.5 22.1C54.3 21.4 56.4 22.3 57.1 24.2L77.9 79.4C78.6 81.2 77.6999 83.3 75.7999 84C73.9999 84.7 71.9 83.8 71.2 81.9L50.4 26.7C49.8 24.8 50.7 22.8 52.5 22.1Z" fill="white" stroke="white" stroke-width="2.5" stroke-miterlimit="10"/>
<path d="M76 49.3C76.6 50.9 75.8 52.7 74.2 53.3L18.1 74.4C16.5 75 14.7 74.2 14.1 72.6C13.5 71 14.3 69.2 15.9 68.6L72 47.5C73.7 46.9 75.4 47.7 76 49.3Z" fill="white" stroke="white" stroke-width="2.5" stroke-miterlimit="10"/>
<path d="M67.3 26C67.9 27.6 67.1 29.3 65.5 29.9L9.39999 51C7.79999 51.6 6.09999 50.8 5.49999 49.2C4.89999 47.6 5.69998 45.9 7.29998 45.3L63.4 24.2C64.9 23.6 66.7 24.4 67.3 26Z" fill="white" stroke="white" stroke-width="2.5" stroke-miterlimit="10"/>
<path d="M84.5 71.9C85.1 73.5 84.3 75.2 82.7 75.8L26.5 96.9C24.9 97.5 23.2 96.7 22.6 95.1C22 93.5 22.8 91.8 24.4 91.2L80.6 70.1C82.2 69.6 84 70.4 84.5 71.9Z" fill="white" stroke="white" stroke-width="2.5" stroke-miterlimit="10"/>
<path d="M158.3 22.3C160.1 21.6 162.2 22.5 162.9 24.4L183.7 79.6C184.4 81.4 183.5 83.5 181.6 84.2C179.8 84.9 177.7 84 177 82.1L156.2 26.9C155.5 25 156.4 23 158.3 22.3Z" fill="white" stroke="white" stroke-width="2.5" stroke-miterlimit="10"/>
<path d="M196.2 5.5C198 4.8 200.1 5.7 200.8 7.6L221.6 62.8C222.3 64.6 221.4 66.7 219.5 67.4C217.7 68.1 215.6 67.2 214.9 65.3L194.1 10.1C193.5 8.2 194.4 6.2 196.2 5.5Z" fill="white" stroke="white" stroke-width="2.5" stroke-miterlimit="10"/>
<path d="M219.8 32.7C220.4 34.3 219.6 36.1 218 36.7L161.9 57.8C160.3 58.4 158.5 57.6 157.9 56C157.3 54.4 158.1 52.6 159.7 52L215.8 30.9C217.4 30.3 219.2 31.1 219.8 32.7Z" fill="white" stroke="white" stroke-width="2.5" stroke-miterlimit="10"/>
<path d="M211 9.50001C211.6 11.1 210.8 12.8 209.2 13.4L153.1 34.5C151.5 35.1 149.8 34.3 149.2 32.7C148.6 31.1 149.4 29.4 151 28.8L207.1 7.7C208.7 7.1 210.4 7.90001 211 9.50001Z" fill="white" stroke="white" stroke-width="2.5" stroke-miterlimit="10"/>
<path d="M228.3 55.4C228.9 57 228.1 58.7 226.5 59.3L170.3 80.4C168.7 81 167 80.2 166.4 78.6C165.8 77 166.6 75.3 168.2 74.7L224.4 53.6C226 53 227.7 53.8 228.3 55.4Z" fill="white" stroke="white" stroke-width="2.5" stroke-miterlimit="10"/>
<path d="M115 55.4C116.8 56.2 117.6 58.3 116.8 60.1L92.4 113.8C91.6 115.6 89.5 116.4 87.7 115.6C85.9 114.8 85.1 112.7 85.9 110.9L110.3 57.2C111.2 55.4 113.3 54.6 115 55.4Z" fill="white" stroke="white" stroke-width="2.5" stroke-miterlimit="10"/>
<path d="M153.7 70.4C155.5 71.2 156.3 73.3 155.5 75.1L131.1 128.8C130.3 130.6 128.2 131.4 126.4 130.6C124.6 129.8 123.8 127.7 124.6 125.9L149 72.2C149.9 70.4 152 69.6 153.7 70.4Z" fill="white" stroke="white" stroke-width="2.5" stroke-miterlimit="10"/>
<path d="M151.1 106.3C150.4 107.8 148.6 108.5 147 107.8L92.4 83C90.9 82.3 90.2 80.5 90.9 78.9C91.6 77.4 93.4 76.7 95 77.4L149.6 102.2C151.1 102.9 151.8 104.7 151.1 106.3Z" fill="white" stroke="white" stroke-width="2.5" stroke-miterlimit="10"/>
<path d="M161.4 83.6C160.7 85.1 158.9 85.8 157.4 85.1L102.8 60.3C101.3 59.6 100.6 57.8 101.3 56.3C102 54.8 103.8 54.1 105.3 54.8L159.9 79.6C161.4 80.3 162.1 82.1 161.4 83.6Z" fill="white" stroke="white" stroke-width="2.5" stroke-miterlimit="10"/>
<path d="M141.1 128.3C140.4 129.8 138.6 130.5 137.1 129.8L82.5 105C81 104.3 80.3 102.5 81 101C81.7 99.5 83.5 98.8 85 99.5L139.7 124.3C141.2 125 141.8 126.8 141.1 128.3Z" fill="white" stroke="white" stroke-width="2.5" stroke-miterlimit="10"/>
</svg>
